<svg width="733" height="50" viewBox="0 0 733 50" fill="none" xmlns="http://www.w3.org/2000/svg">
<rect width="733" height="50" rx="10" fill="#2395FF" fill-opacity="0.1"/>
<path d="M32.333 26.058C32.697 26.058 33.0167 26.0113 33.292 25.918C33.572 25.8247 33.803 25.694 33.985 25.526C34.1717 25.3533 34.3117 25.1457 34.405 24.903C34.4983 24.6603 34.545 24.3897 34.545 24.091C34.545 23.797 34.4983 23.5333 34.405 23.3C34.3163 23.0667 34.181 22.8683 33.999 22.705C33.817 22.5417 33.586 22.418 33.306 22.334C33.0307 22.2453 32.7063 22.201 32.333 22.201H30.835V26.058H32.333ZM32.333 20.92C32.991 20.92 33.5603 20.997 34.041 21.151C34.5263 21.305 34.9253 21.522 35.238 21.802C35.5553 22.0773 35.791 22.411 35.945 22.803C36.099 23.1903 36.176 23.6197 36.176 24.091C36.176 24.5717 36.0943 25.0127 35.931 25.414C35.7677 25.8107 35.525 26.1537 35.203 26.443C34.881 26.7277 34.4797 26.9517 33.999 27.115C33.523 27.2737 32.9677 27.353 32.333 27.353H30.835V31H29.197V20.92H32.333ZM41.0582 27.878C40.5215 27.8967 40.0688 27.941 39.7002 28.011C39.3315 28.0763 39.0328 28.1627 38.8042 28.27C38.5755 28.3727 38.4098 28.4963 38.3072 28.641C38.2092 28.7857 38.1602 28.9443 38.1602 29.117C38.1602 29.285 38.1858 29.4297 38.2372 29.551C38.2932 29.6677 38.3678 29.7657 38.4612 29.845C38.5592 29.9197 38.6712 29.9757 38.7972 30.013C38.9278 30.0457 39.0702 30.062 39.2242 30.062C39.6162 30.062 39.9522 29.9897 40.2322 29.845C40.5168 29.6957 40.7922 29.481 41.0582 29.201V27.878ZM37.0682 24.854C37.8755 24.1027 38.8368 23.727 39.9522 23.727C40.3628 23.727 40.7268 23.7947 41.0442 23.93C41.3662 24.0607 41.6345 24.2473 41.8492 24.49C42.0685 24.7327 42.2342 25.022 42.3462 25.358C42.4628 25.6893 42.5212 26.058 42.5212 26.464V31H41.8492C41.7045 31 41.5948 30.979 41.5202 30.937C41.4455 30.8903 41.3825 30.7993 41.3312 30.664L41.1842 30.083C41.0022 30.2463 40.8225 30.3933 40.6452 30.524C40.4678 30.65 40.2835 30.7573 40.0922 30.846C39.9055 30.9347 39.7025 31 39.4832 31.042C39.2685 31.0887 39.0305 31.112 38.7692 31.112C38.4798 31.112 38.2092 31.0723 37.9572 30.993C37.7098 30.9137 37.4952 30.7947 37.3132 30.636C37.1312 30.4727 36.9865 30.272 36.8792 30.034C36.7765 29.796 36.7252 29.516 36.7252 29.194C36.7252 28.9187 36.7975 28.6503 36.9422 28.389C37.0915 28.1277 37.3342 27.8943 37.6702 27.689C38.0108 27.479 38.4565 27.3063 39.0072 27.171C39.5625 27.0357 40.2462 26.9587 41.0582 26.94V26.464C41.0582 25.9507 40.9485 25.568 40.7292 25.316C40.5098 25.064 40.1878 24.938 39.7632 24.938C39.4738 24.938 39.2312 24.9753 39.0352 25.05C38.8392 25.12 38.6688 25.197 38.5242 25.281C38.3795 25.365 38.2512 25.4443 38.1392 25.519C38.0272 25.589 37.9082 25.624 37.7822 25.624C37.6795 25.624 37.5908 25.5983 37.5162 25.547C37.4462 25.491 37.3878 25.4233 37.3412 25.344L37.0682 24.854ZM48.5472 25.155C48.5099 25.2203 48.4679 25.267 48.4212 25.295C48.3745 25.323 48.3162 25.337 48.2462 25.337C48.1669 25.337 48.0805 25.3137 47.9872 25.267C47.8939 25.2157 47.7842 25.1597 47.6582 25.099C47.5322 25.0383 47.3829 24.9847 47.2102 24.938C47.0422 24.8867 46.8439 24.861 46.6152 24.861C46.4285 24.861 46.2582 24.8843 46.1042 24.931C45.9549 24.973 45.8265 25.036 45.7192 25.12C45.6165 25.1993 45.5372 25.295 45.4812 25.407C45.4252 25.5143 45.3972 25.631 45.3972 25.757C45.3972 25.925 45.4485 26.065 45.5512 26.177C45.6539 26.289 45.7892 26.387 45.9572 26.471C46.1252 26.5503 46.3165 26.6227 46.5312 26.688C46.7459 26.7533 46.9652 26.8233 47.1892 26.898C47.4132 26.9727 47.6325 27.059 47.8472 27.157C48.0619 27.255 48.2532 27.3763 48.4212 27.521C48.5892 27.661 48.7245 27.8337 48.8272 28.039C48.9299 28.2397 48.9812 28.4847 48.9812 28.774C48.9812 29.11 48.9205 29.4203 48.7992 29.705C48.6779 29.9897 48.5005 30.237 48.2672 30.447C48.0339 30.657 47.7422 30.8203 47.3922 30.937C47.0469 31.0537 46.6502 31.112 46.2022 31.112C45.9549 31.112 45.7145 31.0887 45.4812 31.042C45.2525 31 45.0332 30.9417 44.8232 30.867C44.6179 30.7877 44.4242 30.6943 44.2422 30.587C44.0649 30.4797 43.9062 30.363 43.7662 30.237L44.1162 29.663C44.1582 29.593 44.2095 29.5393 44.2702 29.502C44.3355 29.46 44.4149 29.439 44.5082 29.439C44.6062 29.439 44.7019 29.4717 44.7952 29.537C44.8932 29.5977 45.0052 29.6653 45.1312 29.74C45.2619 29.8147 45.4182 29.8847 45.6002 29.95C45.7822 30.0107 46.0085 30.041 46.2792 30.041C46.5032 30.041 46.6969 30.0153 46.8602 29.964C47.0235 29.908 47.1589 29.8333 47.2662 29.74C47.3735 29.6467 47.4529 29.5417 47.5042 29.425C47.5555 29.3037 47.5812 29.1753 47.5812 29.04C47.5812 28.858 47.5299 28.7087 47.4272 28.592C47.3245 28.4753 47.1869 28.375 47.0142 28.291C46.8462 28.207 46.6525 28.1323 46.4332 28.067C46.2185 28.0017 45.9992 27.9317 45.7752 27.857C45.5512 27.7823 45.3295 27.696 45.1102 27.598C44.8955 27.5 44.7019 27.3763 44.5292 27.227C44.3612 27.073 44.2259 26.8887 44.1232 26.674C44.0205 26.4547 43.9692 26.1887 43.9692 25.876C43.9692 25.5913 44.0252 25.3207 44.1372 25.064C44.2539 24.8073 44.4219 24.581 44.6412 24.385C44.8652 24.189 45.1382 24.035 45.4602 23.923C45.7869 23.8063 46.1625 23.748 46.5872 23.748C47.0679 23.748 47.5042 23.825 47.8962 23.979C48.2882 24.133 48.6172 24.343 48.8832 24.609L48.5472 25.155ZM54.6585 25.155C54.6212 25.2203 54.5792 25.267 54.5325 25.295C54.4858 25.323 54.4275 25.337 54.3575 25.337C54.2782 25.337 54.1918 25.3137 54.0985 25.267C54.0052 25.2157 53.8955 25.1597 53.7695 25.099C53.6435 25.0383 53.4942 24.9847 53.3215 24.938C53.1535 24.8867 52.9552 24.861 52.7265 24.861C52.5398 24.861 52.3695 24.8843 52.2155 24.931C52.0662 24.973 51.9378 25.036 51.8305 25.12C51.7278 25.1993 51.6485 25.295 51.5925 25.407C51.5365 25.5143 51.5085 25.631 51.5085 25.757C51.5085 25.925 51.5598 26.065 51.6625 26.177C51.7652 26.289 51.9005 26.387 52.0685 26.471C52.2365 26.5503 52.4278 26.6227 52.6425 26.688C52.8572 26.7533 53.0765 26.8233 53.3005 26.898C53.5245 26.9727 53.7438 27.059 53.9585 27.157C54.1732 27.255 54.3645 27.3763 54.5325 27.521C54.7005 27.661 54.8358 27.8337 54.9385 28.039C55.0412 28.2397 55.0925 28.4847 55.0925 28.774C55.0925 29.11 55.0318 29.4203 54.9105 29.705C54.7892 29.9897 54.6118 30.237 54.3785 30.447C54.1452 30.657 53.8535 30.8203 53.5035 30.937C53.1582 31.0537 52.7615 31.112 52.3135 31.112C52.0662 31.112 51.8258 31.0887 51.5925 31.042C51.3638 31 51.1445 30.9417 50.9345 30.867C50.7292 30.7877 50.5355 30.6943 50.3535 30.587C50.1762 30.4797 50.0175 30.363 49.8775 30.237L50.2275 29.663C50.2695 29.593 50.3208 29.5393 50.3815 29.502C50.4468 29.46 50.5262 29.439 50.6195 29.439C50.7175 29.439 50.8132 29.4717 50.9065 29.537C51.0045 29.5977 51.1165 29.6653 51.2425 29.74C51.3732 29.8147 51.5295 29.8847 51.7115 29.95C51.8935 30.0107 52.1198 30.041 52.3905 30.041C52.6145 30.041 52.8082 30.0153 52.9715 29.964C53.1348 29.908 53.2702 29.8333 53.3775 29.74C53.4848 29.6467 53.5642 29.5417 53.6155 29.425C53.6668 29.3037 53.6925 29.1753 53.6925 29.04C53.6925 28.858 53.6412 28.7087 53.5385 28.592C53.4358 28.4753 53.2982 28.375 53.1255 28.291C52.9575 28.207 52.7638 28.1323 52.5445 28.067C52.3298 28.0017 52.1105 27.9317 51.8865 27.857C51.6625 27.7823 51.4408 27.696 51.2215 27.598C51.0068 27.5 50.8132 27.3763 50.6405 27.227C50.4725 27.073 50.3372 26.8887 50.2345 26.674C50.1318 26.4547 50.0805 26.1887 50.0805 25.876C50.0805 25.5913 50.1365 25.3207 50.2485 25.064C50.3652 24.8073 50.5332 24.581 50.7525 24.385C50.9765 24.189 51.2495 24.035 51.5715 23.923C51.8982 23.8063 52.2738 23.748 52.6985 23.748C53.1792 23.748 53.6155 23.825 54.0075 23.979C54.3995 24.133 54.7285 24.343 54.9945 24.609L54.6585 25.155ZM61.1898 26.625C61.1898 26.373 61.1525 26.1397 61.0778 25.925C61.0078 25.7057 60.9028 25.5167 60.7628 25.358C60.6228 25.1947 60.4478 25.0687 60.2378 24.98C60.0325 24.8867 59.7945 24.84 59.5238 24.84C58.9778 24.84 58.5485 24.9963 58.2358 25.309C57.9232 25.6217 57.7248 26.0603 57.6408 26.625H61.1898ZM57.5988 27.549C57.6175 27.955 57.6805 28.3073 57.7878 28.606C57.8952 28.9 58.0375 29.145 58.2148 29.341C58.3968 29.537 58.6115 29.684 58.8588 29.782C59.1108 29.8753 59.3908 29.922 59.6988 29.922C59.9928 29.922 60.2472 29.8893 60.4618 29.824C60.6765 29.754 60.8632 29.6793 61.0218 29.6C61.1805 29.516 61.3158 29.4413 61.4278 29.376C61.5398 29.306 61.6425 29.271 61.7358 29.271C61.8572 29.271 61.9505 29.3177 62.0158 29.411L62.4428 29.964C62.2655 30.174 62.0648 30.3513 61.8408 30.496C61.6168 30.6407 61.3788 30.7597 61.1268 30.853C60.8748 30.9417 60.6158 31.0047 60.3498 31.042C60.0838 31.084 59.8248 31.105 59.5728 31.105C59.0782 31.105 58.6185 31.0233 58.1938 30.86C57.7738 30.692 57.4075 30.447 57.0948 30.125C56.7868 29.803 56.5442 29.404 56.3668 28.928C56.1942 28.452 56.1078 27.9037 56.1078 27.283C56.1078 26.7883 56.1848 26.3263 56.3388 25.897C56.4975 25.4677 56.7215 25.0943 57.0108 24.777C57.3048 24.4597 57.6595 24.21 58.0748 24.028C58.4948 23.8413 58.9685 23.748 59.4958 23.748C59.9345 23.748 60.3405 23.8203 60.7138 23.965C61.0872 24.105 61.4092 24.3127 61.6798 24.588C61.9505 24.8633 62.1605 25.2017 62.3098 25.603C62.4638 25.9997 62.5408 26.4523 62.5408 26.961C62.5408 27.1943 62.5152 27.3507 62.4638 27.43C62.4125 27.5093 62.3192 27.549 62.1838 27.549H57.5988ZM65.3513 24.805C65.5053 24.6463 65.664 24.504 65.8273 24.378C65.9953 24.2473 66.1727 24.1353 66.3593 24.042C66.546 23.9487 66.7443 23.8763 66.9543 23.825C67.1643 23.7737 67.393 23.748 67.6403 23.748C68.0323 23.748 68.3753 23.8133 68.6693 23.944C68.968 24.0747 69.2177 24.259 69.4183 24.497C69.6237 24.735 69.7777 25.022 69.8803 25.358C69.983 25.6893 70.0343 26.0557 70.0343 26.457V31H68.5363V26.457C68.5363 25.9763 68.4243 25.603 68.2003 25.337C67.981 25.071 67.645 24.938 67.1923 24.938C66.8563 24.938 66.5437 25.015 66.2543 25.169C65.9697 25.323 65.7013 25.533 65.4493 25.799V31H63.9443V23.86H64.8543C65.0597 23.86 65.1903 23.9557 65.2463 24.147L65.3513 24.805ZM74.34 27.367C74.8067 27.367 75.1567 27.248 75.39 27.01C75.6233 26.772 75.74 26.4617 75.74 26.079C75.74 25.687 75.6233 25.3767 75.39 25.148C75.1567 24.9193 74.8067 24.805 74.34 24.805C73.878 24.805 73.528 24.9193 73.29 25.148C73.0567 25.3767 72.94 25.687 72.94 26.079C72.94 26.2657 72.9703 26.4383 73.031 26.597C73.0917 26.7557 73.1803 26.8933 73.297 27.01C73.4137 27.122 73.5583 27.2107 73.731 27.276C73.9083 27.3367 74.1113 27.367 74.34 27.367ZM76.433 31.35C76.433 31.1913 76.3863 31.0653 76.293 30.972C76.2043 30.874 76.083 30.7993 75.929 30.748C75.775 30.692 75.5953 30.6523 75.39 30.629C75.1847 30.601 74.9653 30.5823 74.732 30.573C74.5033 30.559 74.2677 30.5473 74.025 30.538C73.787 30.524 73.556 30.5007 73.332 30.468C73.108 30.5847 72.9237 30.7247 72.779 30.888C72.639 31.0513 72.569 31.2403 72.569 31.455C72.569 31.595 72.604 31.7257 72.674 31.847C72.7487 31.9683 72.8607 32.0733 73.01 32.162C73.164 32.2507 73.3577 32.3207 73.591 32.372C73.829 32.4233 74.1137 32.449 74.445 32.449C75.1077 32.449 75.6047 32.3463 75.936 32.141C76.2673 31.9357 76.433 31.672 76.433 31.35ZM77.945 24.119V24.679C77.945 24.8657 77.833 24.98 77.609 25.022L76.895 25.141C77.0163 25.4117 77.077 25.7127 77.077 26.044C77.077 26.394 77.007 26.7113 76.867 26.996C76.7317 27.2807 76.5427 27.5233 76.3 27.724C76.0573 27.9247 75.768 28.0787 75.432 28.186C75.096 28.2933 74.732 28.347 74.34 28.347C74.1907 28.347 74.0437 28.34 73.899 28.326C73.759 28.3073 73.6213 28.284 73.486 28.256C73.3507 28.3353 73.2503 28.4193 73.185 28.508C73.1197 28.5967 73.087 28.6877 73.087 28.781C73.087 28.935 73.1547 29.0493 73.29 29.124C73.4253 29.1987 73.6027 29.2523 73.822 29.285C74.046 29.3177 74.3003 29.3387 74.585 29.348C74.8697 29.3573 75.159 29.3737 75.453 29.397C75.747 29.4203 76.0363 29.46 76.321 29.516C76.6057 29.5673 76.8577 29.656 77.077 29.782C77.301 29.9033 77.4807 30.069 77.616 30.279C77.7513 30.489 77.819 30.762 77.819 31.098C77.819 31.406 77.742 31.707 77.588 32.001C77.434 32.295 77.21 32.5563 76.916 32.785C76.6267 33.0137 76.272 33.1957 75.852 33.331C75.432 33.471 74.9537 33.541 74.417 33.541C73.885 33.541 73.4207 33.4897 73.024 33.387C72.632 33.2843 72.303 33.1443 72.037 32.967C71.7757 32.7943 71.5797 32.5937 71.449 32.365C71.323 32.1363 71.26 31.8983 71.26 31.651C71.26 31.315 71.365 31.028 71.575 30.79C71.7897 30.552 72.079 30.3653 72.443 30.23C72.247 30.1367 72.0883 30.0083 71.967 29.845C71.8503 29.6817 71.792 29.467 71.792 29.201C71.792 28.991 71.869 28.7717 72.023 28.543C72.177 28.3143 72.408 28.1207 72.716 27.962C72.3613 27.766 72.0813 27.507 71.876 27.185C71.6707 26.8583 71.568 26.478 71.568 26.044C71.568 25.6893 71.6357 25.3697 71.771 25.085C71.911 24.8003 72.1047 24.5577 72.352 24.357C72.5993 24.1563 72.891 24.0023 73.227 23.895C73.5677 23.7877 73.9387 23.734 74.34 23.734C74.956 23.734 75.4927 23.8623 75.95 24.119H77.945ZM83.6938 26.625C83.6938 26.373 83.6564 26.1397 83.5818 25.925C83.5118 25.7057 83.4068 25.5167 83.2668 25.358C83.1268 25.1947 82.9518 25.0687 82.7418 24.98C82.5364 24.8867 82.2984 24.84 82.0278 24.84C81.4818 24.84 81.0524 24.9963 80.7398 25.309C80.4271 25.6217 80.2288 26.0603 80.1448 26.625H83.6938ZM80.1028 27.549C80.1214 27.955 80.1844 28.3073 80.2918 28.606C80.3991 28.9 80.5414 29.145 80.7188 29.341C80.9008 29.537 81.1154 29.684 81.3628 29.782C81.6148 29.8753 81.8948 29.922 82.2028 29.922C82.4968 29.922 82.7511 29.8893 82.9658 29.824C83.1804 29.754 83.3671 29.6793 83.5258 29.6C83.6844 29.516 83.8198 29.4413 83.9318 29.376C84.0438 29.306 84.1464 29.271 84.2398 29.271C84.3611 29.271 84.4544 29.3177 84.5198 29.411L84.9468 29.964C84.7694 30.174 84.5688 30.3513 84.3448 30.496C84.1208 30.6407 83.8828 30.7597 83.6308 30.853C83.3788 30.9417 83.1198 31.0047 82.8538 31.042C82.5878 31.084 82.3288 31.105 82.0768 31.105C81.5821 31.105 81.1224 31.0233 80.6978 30.86C80.2778 30.692 79.9114 30.447 79.5988 30.125C79.2908 29.803 79.0481 29.404 78.8708 28.928C78.6981 28.452 78.6118 27.9037 78.6118 27.283C78.6118 26.7883 78.6888 26.3263 78.8428 25.897C79.0014 25.4677 79.2254 25.0943 79.5148 24.777C79.8088 24.4597 80.1634 24.21 80.5788 24.028C80.9988 23.8413 81.4724 23.748 81.9998 23.748C82.4384 23.748 82.8444 23.8203 83.2178 23.965C83.5911 24.105 83.9131 24.3127 84.1838 24.588C84.4544 24.8633 84.6644 25.2017 84.8138 25.603C84.9678 25.9997 85.0448 26.4523 85.0448 26.961C85.0448 27.1943 85.0191 27.3507 84.9678 27.43C84.9164 27.5093 84.8231 27.549 84.6878 27.549H80.1028ZM87.8693 25.183C88.0933 24.7303 88.3639 24.3757 88.6813 24.119C88.9986 23.8577 89.3789 23.727 89.8223 23.727C89.9763 23.727 90.1209 23.7457 90.2563 23.783C90.3916 23.8157 90.5129 23.867 90.6203 23.937L90.5153 25.071C90.4966 25.1503 90.4663 25.2063 90.4243 25.239C90.3869 25.267 90.3356 25.281 90.2703 25.281C90.2003 25.281 90.0999 25.2693 89.9693 25.246C89.8386 25.218 89.7009 25.204 89.5563 25.204C89.3463 25.204 89.1596 25.2343 88.9963 25.295C88.8376 25.3557 88.6929 25.4443 88.5623 25.561C88.4363 25.6777 88.3243 25.82 88.2263 25.988C88.1283 26.156 88.0373 26.3473 87.9533 26.562V31H86.4483V23.86H87.3233C87.4819 23.86 87.5916 23.8903 87.6523 23.951C87.7129 24.007 87.7549 24.1073 87.7783 24.252L87.8693 25.183ZM94.6898 30.132C94.6898 29.9967 94.7131 29.8707 94.7598 29.754C94.8111 29.6327 94.8788 29.5277 94.9628 29.439C95.0514 29.3503 95.1541 29.2803 95.2708 29.229C95.3921 29.1777 95.5204 29.152 95.6558 29.152C95.7911 29.152 95.9171 29.1777 96.0338 29.229C96.1551 29.2803 96.2601 29.3503 96.3488 29.439C96.4374 29.5277 96.5074 29.6327 96.5588 29.754C96.6101 29.8707 96.6358 29.9967 96.6358 30.132C96.6358 30.272 96.6101 30.4003 96.5588 30.517C96.5074 30.6337 96.4374 30.7363 96.3488 30.825C96.2601 30.9137 96.1551 30.9813 96.0338 31.028C95.9171 31.0793 95.7911 31.105 95.6558 31.105C95.5204 31.105 95.3921 31.0793 95.2708 31.028C95.1541 30.9813 95.0514 30.9137 94.9628 30.825C94.8788 30.7363 94.8111 30.6337 94.7598 30.517C94.7131 30.4003 94.6898 30.272 94.6898 30.132ZM94.6898 25.029C94.6898 24.8937 94.7131 24.7677 94.7598 24.651C94.8111 24.5297 94.8788 24.4247 94.9628 24.336C95.0514 24.2473 95.1541 24.1773 95.2708 24.126C95.3921 24.0747 95.5204 24.049 95.6558 24.049C95.7911 24.049 95.9171 24.0747 96.0338 24.126C96.1551 24.1773 96.2601 24.2473 96.3488 24.336C96.4374 24.4247 96.5074 24.5297 96.5588 24.651C96.6101 24.7677 96.6358 24.8937 96.6358 25.029C96.6358 25.169 96.6101 25.2973 96.5588 25.414C96.5074 25.5307 96.4374 25.6333 96.3488 25.722C96.2601 25.8107 96.1551 25.8807 96.0338 25.932C95.9171 25.9787 95.7911 26.002 95.6558 26.002C95.5204 26.002 95.3921 25.9787 95.2708 25.932C95.1541 25.8807 95.0514 25.8107 94.9628 25.722C94.8788 25.6333 94.8111 25.5307 94.7598 25.414C94.7131 25.2973 94.6898 25.169 94.6898 25.029ZM108.115 29.859V31H102.62V29.859H104.72V23.545C104.72 23.321 104.727 23.0923 104.741 22.859L103.124 24.224C103.054 24.28 102.981 24.3173 102.907 24.336C102.837 24.35 102.769 24.35 102.704 24.336C102.643 24.322 102.587 24.301 102.536 24.273C102.489 24.2403 102.452 24.2053 102.424 24.168L101.955 23.51L104.993 20.899H106.218V29.859H108.115ZM118.599 27.22L117.213 23.538C117.101 23.2533 116.987 22.8917 116.87 22.453C116.819 22.6723 116.763 22.8753 116.702 23.062C116.642 23.244 116.586 23.405 116.534 23.545L115.148 27.22H118.599ZM121.7 31H120.433C120.289 31 120.172 30.965 120.083 30.895C119.995 30.8203 119.927 30.7293 119.88 30.622L119.04 28.396H114.7L113.86 30.622C113.823 30.7153 113.758 30.8017 113.664 30.881C113.571 30.9603 113.454 31 113.314 31H112.047L116.044 20.92H117.703L121.7 31ZM127.003 25.617C126.793 25.3463 126.562 25.1573 126.31 25.05C126.058 24.9427 125.785 24.889 125.491 24.889C124.903 24.889 124.444 25.106 124.112 25.54C123.781 25.9693 123.615 26.6063 123.615 27.451C123.615 27.8897 123.653 28.2653 123.727 28.578C123.802 28.886 123.909 29.138 124.049 29.334C124.189 29.53 124.36 29.6723 124.56 29.761C124.761 29.8497 124.987 29.894 125.239 29.894C125.622 29.894 125.951 29.8123 126.226 29.649C126.506 29.481 126.765 29.2453 127.003 28.942V25.617ZM128.508 20.64V31H127.598C127.398 31 127.269 30.9043 127.213 30.713L127.08 29.936C126.782 30.286 126.441 30.5683 126.058 30.783C125.68 30.9977 125.239 31.105 124.735 31.105C124.334 31.105 123.97 31.0257 123.643 30.867C123.317 30.7037 123.037 30.468 122.803 30.16C122.57 29.852 122.388 29.4717 122.257 29.019C122.131 28.5617 122.068 28.039 122.068 27.451C122.068 26.919 122.138 26.4267 122.278 25.974C122.423 25.5213 122.628 25.1293 122.894 24.798C123.16 24.462 123.482 24.2007 123.86 24.014C124.243 23.8227 124.67 23.727 125.141 23.727C125.561 23.727 125.918 23.7947 126.212 23.93C126.506 24.0607 126.77 24.245 127.003 24.483V20.64H128.508ZM136.369 23.86V31H135.459C135.258 31 135.13 30.9043 135.074 30.713L134.962 30.048C134.812 30.2067 134.654 30.3513 134.486 30.482C134.322 30.6127 134.147 30.7247 133.961 30.818C133.774 30.9113 133.573 30.9837 133.359 31.035C133.149 31.0863 132.922 31.112 132.68 31.112C132.288 31.112 131.942 31.0467 131.644 30.916C131.345 30.7853 131.093 30.601 130.888 30.363C130.687 30.125 130.535 29.8403 130.433 29.509C130.33 29.173 130.279 28.8043 130.279 28.403V23.86H131.784V28.403C131.784 28.8837 131.893 29.257 132.113 29.523C132.337 29.789 132.675 29.922 133.128 29.922C133.459 29.922 133.767 29.8473 134.052 29.698C134.341 29.544 134.612 29.334 134.864 29.068V23.86H136.369ZM139.729 20.64V31H138.224V20.64H139.729ZM143.876 31.112C143.283 31.112 142.826 30.9463 142.504 30.615C142.187 30.279 142.028 29.8077 142.028 29.201V25.043H141.244C141.16 25.043 141.088 25.0173 141.027 24.966C140.966 24.91 140.936 24.8283 140.936 24.721V24.112L142.091 23.944L142.42 21.879C142.443 21.7997 142.483 21.7367 142.539 21.69C142.595 21.6387 142.67 21.613 142.763 21.613H143.533V23.958H145.514V25.043H143.533V29.096C143.533 29.3527 143.596 29.5487 143.722 29.684C143.848 29.8193 144.016 29.887 144.226 29.887C144.343 29.887 144.443 29.873 144.527 29.845C144.611 29.8123 144.683 29.7797 144.744 29.747C144.805 29.7097 144.856 29.677 144.898 29.649C144.945 29.6163 144.989 29.6 145.031 29.6C145.115 29.6 145.183 29.6467 145.234 29.74L145.682 30.475C145.449 30.6803 145.173 30.839 144.856 30.951C144.539 31.0583 144.212 31.112 143.876 31.112Z" fill="#595959"/>
<rect x="658" y="13" width="47" height="25" rx="12.5" fill="#C4C4C4"/>
<circle cx="671.5" cy="25.5" r="10.5" fill="white"/>
<path d="M502.468 22.642C502.417 22.726 502.363 22.789 502.307 22.831C502.251 22.8683 502.181 22.887 502.097 22.887C502.008 22.887 501.908 22.8497 501.796 22.775C501.689 22.7003 501.553 22.6187 501.39 22.53C501.231 22.4367 501.042 22.3527 500.823 22.278C500.604 22.1987 500.342 22.159 500.039 22.159C499.759 22.159 499.512 22.194 499.297 22.264C499.087 22.334 498.91 22.432 498.765 22.558C498.62 22.684 498.511 22.8333 498.436 23.006C498.366 23.174 498.331 23.3583 498.331 23.559C498.331 23.8157 498.399 24.0303 498.534 24.203C498.669 24.371 498.847 24.5157 499.066 24.637C499.29 24.7583 499.544 24.8657 499.829 24.959C500.114 25.0477 500.403 25.1433 500.697 25.246C500.996 25.3487 501.287 25.4653 501.572 25.596C501.857 25.7267 502.109 25.8923 502.328 26.093C502.552 26.2937 502.732 26.5387 502.867 26.828C503.002 27.1173 503.07 27.4697 503.07 27.885C503.07 28.333 502.993 28.753 502.839 29.145C502.685 29.537 502.461 29.88 502.167 30.174C501.878 30.4633 501.518 30.692 501.089 30.86C500.664 31.028 500.179 31.112 499.633 31.112C499.311 31.112 498.996 31.0793 498.688 31.014C498.385 30.9533 498.093 30.867 497.813 30.755C497.538 30.6383 497.279 30.4983 497.036 30.335C496.793 30.1717 496.576 29.9897 496.385 29.789L496.861 29.005C496.903 28.9397 496.957 28.8883 497.022 28.851C497.087 28.8137 497.16 28.795 497.239 28.795C497.346 28.795 497.465 28.8463 497.596 28.949C497.727 29.047 497.883 29.1567 498.065 29.278C498.252 29.3947 498.476 29.5043 498.737 29.607C498.998 29.705 499.311 29.754 499.675 29.754C500.268 29.754 500.725 29.6093 501.047 29.32C501.374 29.0307 501.537 28.6317 501.537 28.123C501.537 27.8383 501.469 27.6073 501.334 27.43C501.199 27.248 501.019 27.0963 500.795 26.975C500.576 26.8537 500.324 26.751 500.039 26.667C499.754 26.583 499.465 26.4943 499.171 26.401C498.877 26.303 498.588 26.191 498.303 26.065C498.018 25.9343 497.764 25.7663 497.54 25.561C497.321 25.351 497.143 25.0943 497.008 24.791C496.873 24.483 496.805 24.1003 496.805 23.643C496.805 23.279 496.875 22.9267 497.015 22.586C497.16 22.2453 497.367 21.9443 497.638 21.683C497.913 21.417 498.252 21.2047 498.653 21.046C499.054 20.8873 499.512 20.808 500.025 20.808C500.604 20.808 501.133 20.899 501.614 21.081C502.099 21.263 502.517 21.522 502.867 21.858L502.468 22.642ZM508.279 27.878C507.742 27.8967 507.29 27.941 506.921 28.011C506.552 28.0763 506.254 28.1627 506.025 28.27C505.796 28.3727 505.631 28.4963 505.528 28.641C505.43 28.7857 505.381 28.9443 505.381 29.117C505.381 29.285 505.407 29.4297 505.458 29.551C505.514 29.6677 505.589 29.7657 505.682 29.845C505.78 29.9197 505.892 29.9757 506.018 30.013C506.149 30.0457 506.291 30.062 506.445 30.062C506.837 30.062 507.173 29.9897 507.453 29.845C507.738 29.6957 508.013 29.481 508.279 29.201V27.878ZM504.289 24.854C505.096 24.1027 506.058 23.727 507.173 23.727C507.584 23.727 507.948 23.7947 508.265 23.93C508.587 24.0607 508.855 24.2473 509.07 24.49C509.289 24.7327 509.455 25.022 509.567 25.358C509.684 25.6893 509.742 26.058 509.742 26.464V31H509.07C508.925 31 508.816 30.979 508.741 30.937C508.666 30.8903 508.603 30.7993 508.552 30.664L508.405 30.083C508.223 30.2463 508.043 30.3933 507.866 30.524C507.689 30.65 507.504 30.7573 507.313 30.846C507.126 30.9347 506.923 31 506.704 31.042C506.489 31.0887 506.251 31.112 505.99 31.112C505.701 31.112 505.43 31.0723 505.178 30.993C504.931 30.9137 504.716 30.7947 504.534 30.636C504.352 30.4727 504.207 30.272 504.1 30.034C503.997 29.796 503.946 29.516 503.946 29.194C503.946 28.9187 504.018 28.6503 504.163 28.389C504.312 28.1277 504.555 27.8943 504.891 27.689C505.232 27.479 505.677 27.3063 506.228 27.171C506.783 27.0357 507.467 26.9587 508.279 26.94V26.464C508.279 25.9507 508.169 25.568 507.95 25.316C507.731 25.064 507.409 24.938 506.984 24.938C506.695 24.938 506.452 24.9753 506.256 25.05C506.06 25.12 505.89 25.197 505.745 25.281C505.6 25.365 505.472 25.4443 505.36 25.519C505.248 25.589 505.129 25.624 505.003 25.624C504.9 25.624 504.812 25.5983 504.737 25.547C504.667 25.491 504.609 25.4233 504.562 25.344L504.289 24.854ZM511.505 31V23.86H512.415C512.62 23.86 512.751 23.9557 512.807 24.147L512.905 24.77C513.036 24.6207 513.171 24.4853 513.311 24.364C513.451 24.238 513.6 24.1307 513.759 24.042C513.922 23.9487 514.095 23.8763 514.277 23.825C514.464 23.7737 514.664 23.748 514.879 23.748C515.108 23.748 515.318 23.7807 515.509 23.846C515.7 23.9113 515.868 24.0047 516.013 24.126C516.162 24.2473 516.291 24.3943 516.398 24.567C516.505 24.7397 516.594 24.9333 516.664 25.148C516.771 24.9007 516.907 24.6883 517.07 24.511C517.233 24.3337 517.415 24.189 517.616 24.077C517.817 23.965 518.029 23.8833 518.253 23.832C518.482 23.776 518.713 23.748 518.946 23.748C519.329 23.748 519.669 23.8087 519.968 23.93C520.271 24.0513 520.526 24.2287 520.731 24.462C520.941 24.6907 521.1 24.973 521.207 25.309C521.314 25.645 521.368 26.0277 521.368 26.457V31H519.863V26.457C519.863 25.953 519.753 25.575 519.534 25.323C519.319 25.0663 519 24.938 518.575 24.938C518.384 24.938 518.204 24.9707 518.036 25.036C517.868 25.1013 517.721 25.197 517.595 25.323C517.469 25.449 517.369 25.6077 517.294 25.799C517.224 25.9857 517.189 26.205 517.189 26.457V31H515.684V26.457C515.684 25.9343 515.579 25.5517 515.369 25.309C515.159 25.0617 514.851 24.938 514.445 24.938C514.165 24.938 513.906 25.0103 513.668 25.155C513.43 25.295 513.211 25.4887 513.01 25.736V31H511.505ZM527.809 26.625C527.809 26.373 527.772 26.1397 527.697 25.925C527.627 25.7057 527.522 25.5167 527.382 25.358C527.242 25.1947 527.067 25.0687 526.857 24.98C526.652 24.8867 526.414 24.84 526.143 24.84C525.597 24.84 525.168 24.9963 524.855 25.309C524.542 25.6217 524.344 26.0603 524.26 26.625H527.809ZM524.218 27.549C524.237 27.955 524.3 28.3073 524.407 28.606C524.514 28.9 524.657 29.145 524.834 29.341C525.016 29.537 525.231 29.684 525.478 29.782C525.73 29.8753 526.01 29.922 526.318 29.922C526.612 29.922 526.866 29.8893 527.081 29.824C527.296 29.754 527.482 29.6793 527.641 29.6C527.8 29.516 527.935 29.4413 528.047 29.376C528.159 29.306 528.262 29.271 528.355 29.271C528.476 29.271 528.57 29.3177 528.635 29.411L529.062 29.964C528.885 30.174 528.684 30.3513 528.46 30.496C528.236 30.6407 527.998 30.7597 527.746 30.853C527.494 30.9417 527.235 31.0047 526.969 31.042C526.703 31.084 526.444 31.105 526.192 31.105C525.697 31.105 525.238 31.0233 524.813 30.86C524.393 30.692 524.027 30.447 523.714 30.125C523.406 29.803 523.163 29.404 522.986 28.928C522.813 28.452 522.727 27.9037 522.727 27.283C522.727 26.7883 522.804 26.3263 522.958 25.897C523.117 25.4677 523.341 25.0943 523.63 24.777C523.924 24.4597 524.279 24.21 524.694 24.028C525.114 23.8413 525.588 23.748 526.115 23.748C526.554 23.748 526.96 23.8203 527.333 23.965C527.706 24.105 528.028 24.3127 528.299 24.588C528.57 24.8633 528.78 25.2017 528.929 25.603C529.083 25.9997 529.16 26.4523 529.16 26.961C529.16 27.1943 529.134 27.3507 529.083 27.43C529.032 27.5093 528.938 27.549 528.803 27.549H524.218ZM537.865 27.878C537.328 27.8967 536.875 27.941 536.507 28.011C536.138 28.0763 535.839 28.1627 535.611 28.27C535.382 28.3727 535.216 28.4963 535.114 28.641C535.016 28.7857 534.967 28.9443 534.967 29.117C534.967 29.285 534.992 29.4297 535.044 29.551C535.1 29.6677 535.174 29.7657 535.268 29.845C535.366 29.9197 535.478 29.9757 535.604 30.013C535.734 30.0457 535.877 30.062 536.031 30.062C536.423 30.062 536.759 29.9897 537.039 29.845C537.323 29.6957 537.599 29.481 537.865 29.201V27.878ZM533.875 24.854C534.682 24.1027 535.643 23.727 536.759 23.727C537.169 23.727 537.533 23.7947 537.851 23.93C538.173 24.0607 538.441 24.2473 538.656 24.49C538.875 24.7327 539.041 25.022 539.153 25.358C539.269 25.6893 539.328 26.058 539.328 26.464V31H538.656C538.511 31 538.401 30.979 538.327 30.937C538.252 30.8903 538.189 30.7993 538.138 30.664L537.991 30.083C537.809 30.2463 537.629 30.3933 537.452 30.524C537.274 30.65 537.09 30.7573 536.899 30.846C536.712 30.9347 536.509 31 536.29 31.042C536.075 31.0887 535.837 31.112 535.576 31.112C535.286 31.112 535.016 31.0723 534.764 30.993C534.516 30.9137 534.302 30.7947 534.12 30.636C533.938 30.4727 533.793 30.272 533.686 30.034C533.583 29.796 533.532 29.516 533.532 29.194C533.532 28.9187 533.604 28.6503 533.749 28.389C533.898 28.1277 534.141 27.8943 534.477 27.689C534.817 27.479 535.263 27.3063 535.814 27.171C536.369 27.0357 537.053 26.9587 537.865 26.94V26.464C537.865 25.9507 537.755 25.568 537.536 25.316C537.316 25.064 536.994 24.938 536.57 24.938C536.28 24.938 536.038 24.9753 535.842 25.05C535.646 25.12 535.475 25.197 535.331 25.281C535.186 25.365 535.058 25.4443 534.946 25.519C534.834 25.589 534.715 25.624 534.589 25.624C534.486 25.624 534.397 25.5983 534.323 25.547C534.253 25.491 534.194 25.4233 534.148 25.344L533.875 24.854ZM545.354 25.155C545.316 25.2203 545.274 25.267 545.228 25.295C545.181 25.323 545.123 25.337 545.053 25.337C544.973 25.337 544.887 25.3137 544.794 25.267C544.7 25.2157 544.591 25.1597 544.465 25.099C544.339 25.0383 544.189 24.9847 544.017 24.938C543.849 24.8867 543.65 24.861 543.422 24.861C543.235 24.861 543.065 24.8843 542.911 24.931C542.761 24.973 542.633 25.036 542.526 25.12C542.423 25.1993 542.344 25.295 542.288 25.407C542.232 25.5143 542.204 25.631 542.204 25.757C542.204 25.925 542.255 26.065 542.358 26.177C542.46 26.289 542.596 26.387 542.764 26.471C542.932 26.5503 543.123 26.6227 543.338 26.688C543.552 26.7533 543.772 26.8233 543.996 26.898C544.22 26.9727 544.439 27.059 544.654 27.157C544.868 27.255 545.06 27.3763 545.228 27.521C545.396 27.661 545.531 27.8337 545.634 28.039C545.736 28.2397 545.788 28.4847 545.788 28.774C545.788 29.11 545.727 29.4203 545.606 29.705C545.484 29.9897 545.307 30.237 545.074 30.447C544.84 30.657 544.549 30.8203 544.199 30.937C543.853 31.0537 543.457 31.112 543.009 31.112C542.761 31.112 542.521 31.0887 542.288 31.042C542.059 31 541.84 30.9417 541.63 30.867C541.424 30.7877 541.231 30.6943 541.049 30.587C540.871 30.4797 540.713 30.363 540.573 30.237L540.923 29.663C540.965 29.593 541.016 29.5393 541.077 29.502C541.142 29.46 541.221 29.439 541.315 29.439C541.413 29.439 541.508 29.4717 541.602 29.537C541.7 29.5977 541.812 29.6653 541.938 29.74C542.068 29.8147 542.225 29.8847 542.407 29.95C542.589 30.0107 542.815 30.041 543.086 30.041C543.31 30.041 543.503 30.0153 543.667 29.964C543.83 29.908 543.965 29.8333 544.073 29.74C544.18 29.6467 544.259 29.5417 544.311 29.425C544.362 29.3037 544.388 29.1753 544.388 29.04C544.388 28.858 544.336 28.7087 544.234 28.592C544.131 28.4753 543.993 28.375 543.821 28.291C543.653 28.207 543.459 28.1323 543.24 28.067C543.025 28.0017 542.806 27.9317 542.582 27.857C542.358 27.7823 542.136 27.696 541.917 27.598C541.702 27.5 541.508 27.3763 541.336 27.227C541.168 27.073 541.032 26.8887 540.93 26.674C540.827 26.4547 540.776 26.1887 540.776 25.876C540.776 25.5913 540.832 25.3207 540.944 25.064C541.06 24.8073 541.228 24.581 541.448 24.385C541.672 24.189 541.945 24.035 542.267 23.923C542.593 23.8063 542.969 23.748 543.394 23.748C543.874 23.748 544.311 23.825 544.703 23.979C545.095 24.133 545.424 24.343 545.69 24.609L545.354 25.155ZM555.735 25.26C555.689 25.3207 555.644 25.3673 555.602 25.4C555.56 25.4327 555.5 25.449 555.42 25.449C555.341 25.449 555.257 25.421 555.168 25.365C555.084 25.309 554.982 25.2483 554.86 25.183C554.744 25.113 554.601 25.05 554.433 24.994C554.265 24.938 554.055 24.91 553.803 24.91C553.477 24.91 553.19 24.9683 552.942 25.085C552.7 25.2017 552.494 25.3697 552.326 25.589C552.163 25.8037 552.039 26.0673 551.955 26.38C551.876 26.688 551.836 27.0357 551.836 27.423C551.836 27.8243 551.881 28.1813 551.969 28.494C552.058 28.8067 552.184 29.0703 552.347 29.285C552.515 29.4997 552.716 29.663 552.949 29.775C553.187 29.887 553.453 29.943 553.747 29.943C554.037 29.943 554.272 29.908 554.454 29.838C554.636 29.768 554.788 29.691 554.909 29.607C555.031 29.523 555.133 29.446 555.217 29.376C555.306 29.306 555.399 29.271 555.497 29.271C555.619 29.271 555.712 29.3177 555.777 29.411L556.204 29.964C556.032 30.174 555.84 30.3513 555.63 30.496C555.42 30.6407 555.199 30.7597 554.965 30.853C554.732 30.9417 554.489 31.0047 554.237 31.042C553.985 31.084 553.731 31.105 553.474 31.105C553.031 31.105 552.616 31.0233 552.228 30.86C551.846 30.692 551.51 30.4517 551.22 30.139C550.936 29.8217 550.709 29.4367 550.541 28.984C550.378 28.5267 550.296 28.0063 550.296 27.423C550.296 26.8957 550.371 26.408 550.52 25.96C550.67 25.5073 550.887 25.1177 551.171 24.791C551.461 24.4643 551.818 24.21 552.242 24.028C552.667 23.8413 553.157 23.748 553.712 23.748C554.23 23.748 554.685 23.832 555.077 24C555.474 24.168 555.826 24.406 556.134 24.714L555.735 25.26ZM560.379 23.748C560.906 23.748 561.382 23.8343 561.807 24.007C562.236 24.1797 562.6 24.4247 562.899 24.742C563.202 25.0593 563.436 25.4443 563.599 25.897C563.762 26.3497 563.844 26.8583 563.844 27.423C563.844 27.9877 563.762 28.4963 563.599 28.949C563.436 29.4017 563.202 29.789 562.899 30.111C562.6 30.4283 562.236 30.6733 561.807 30.846C561.382 31.0187 560.906 31.105 560.379 31.105C559.847 31.105 559.366 31.0187 558.937 30.846C558.512 30.6733 558.148 30.4283 557.845 30.111C557.542 29.789 557.308 29.4017 557.145 28.949C556.982 28.4963 556.9 27.9877 556.9 27.423C556.9 26.8583 556.982 26.3497 557.145 25.897C557.308 25.4443 557.542 25.0593 557.845 24.742C558.148 24.4247 558.512 24.1797 558.937 24.007C559.366 23.8343 559.847 23.748 560.379 23.748ZM560.379 29.929C561.023 29.929 561.501 29.7143 561.814 29.285C562.131 28.851 562.29 28.2327 562.29 27.43C562.29 26.6273 562.131 26.009 561.814 25.575C561.501 25.1363 561.023 24.917 560.379 24.917C559.726 24.917 559.24 25.1363 558.923 25.575C558.606 26.009 558.447 26.6273 558.447 27.43C558.447 28.2327 558.606 28.851 558.923 29.285C559.24 29.7143 559.726 29.929 560.379 29.929ZM566.697 24.805C566.851 24.6463 567.01 24.504 567.173 24.378C567.341 24.2473 567.518 24.1353 567.705 24.042C567.892 23.9487 568.09 23.8763 568.3 23.825C568.51 23.7737 568.739 23.748 568.986 23.748C569.378 23.748 569.721 23.8133 570.015 23.944C570.314 24.0747 570.563 24.259 570.764 24.497C570.969 24.735 571.123 25.022 571.226 25.358C571.329 25.6893 571.38 26.0557 571.38 26.457V31H569.882V26.457C569.882 25.9763 569.77 25.603 569.546 25.337C569.327 25.071 568.991 24.938 568.538 24.938C568.202 24.938 567.889 25.015 567.6 25.169C567.315 25.323 567.047 25.533 566.795 25.799V31H565.29V23.86H566.2C566.405 23.86 566.536 23.9557 566.592 24.147L566.697 24.805ZM575.331 31.112C574.738 31.112 574.281 30.9463 573.959 30.615C573.642 30.279 573.483 29.8077 573.483 29.201V25.043H572.699C572.615 25.043 572.543 25.0173 572.482 24.966C572.421 24.91 572.391 24.8283 572.391 24.721V24.112L573.546 23.944L573.875 21.879C573.898 21.7997 573.938 21.7367 573.994 21.69C574.05 21.6387 574.125 21.613 574.218 21.613H574.988V23.958H576.969V25.043H574.988V29.096C574.988 29.3527 575.051 29.5487 575.177 29.684C575.303 29.8193 575.471 29.887 575.681 29.887C575.798 29.887 575.898 29.873 575.982 29.845C576.066 29.8123 576.138 29.7797 576.199 29.747C576.26 29.7097 576.311 29.677 576.353 29.649C576.4 29.6163 576.444 29.6 576.486 29.6C576.57 29.6 576.638 29.6467 576.689 29.74L577.137 30.475C576.904 30.6803 576.628 30.839 576.311 30.951C575.994 31.0583 575.667 31.112 575.331 31.112ZM581.97 27.878C581.434 27.8967 580.981 27.941 580.612 28.011C580.244 28.0763 579.945 28.1627 579.716 28.27C579.488 28.3727 579.322 28.4963 579.219 28.641C579.121 28.7857 579.072 28.9443 579.072 29.117C579.072 29.285 579.098 29.4297 579.149 29.551C579.205 29.6677 579.28 29.7657 579.373 29.845C579.471 29.9197 579.583 29.9757 579.709 30.013C579.84 30.0457 579.982 30.062 580.136 30.062C580.528 30.062 580.864 29.9897 581.144 29.845C581.429 29.6957 581.704 29.481 581.97 29.201V27.878ZM577.98 24.854C578.788 24.1027 579.749 23.727 580.864 23.727C581.275 23.727 581.639 23.7947 581.956 23.93C582.278 24.0607 582.547 24.2473 582.761 24.49C582.981 24.7327 583.146 25.022 583.258 25.358C583.375 25.6893 583.433 26.058 583.433 26.464V31H582.761C582.617 31 582.507 30.979 582.432 30.937C582.358 30.8903 582.295 30.7993 582.243 30.664L582.096 30.083C581.914 30.2463 581.735 30.3933 581.557 30.524C581.38 30.65 581.196 30.7573 581.004 30.846C580.818 30.9347 580.615 31 580.395 31.042C580.181 31.0887 579.943 31.112 579.681 31.112C579.392 31.112 579.121 31.0723 578.869 30.993C578.622 30.9137 578.407 30.7947 578.225 30.636C578.043 30.4727 577.899 30.272 577.791 30.034C577.689 29.796 577.637 29.516 577.637 29.194C577.637 28.9187 577.71 28.6503 577.854 28.389C578.004 28.1277 578.246 27.8943 578.582 27.689C578.923 27.479 579.369 27.3063 579.919 27.171C580.475 27.0357 581.158 26.9587 581.97 26.94V26.464C581.97 25.9507 581.861 25.568 581.641 25.316C581.422 25.064 581.1 24.938 580.675 24.938C580.386 24.938 580.143 24.9753 579.947 25.05C579.751 25.12 579.581 25.197 579.436 25.281C579.292 25.365 579.163 25.4443 579.051 25.519C578.939 25.589 578.82 25.624 578.694 25.624C578.592 25.624 578.503 25.5983 578.428 25.547C578.358 25.491 578.3 25.4233 578.253 25.344L577.98 24.854ZM590.243 25.26C590.197 25.3207 590.152 25.3673 590.11 25.4C590.068 25.4327 590.008 25.449 589.928 25.449C589.849 25.449 589.765 25.421 589.676 25.365C589.592 25.309 589.49 25.2483 589.368 25.183C589.252 25.113 589.109 25.05 588.941 24.994C588.773 24.938 588.563 24.91 588.311 24.91C587.985 24.91 587.698 24.9683 587.45 25.085C587.208 25.2017 587.002 25.3697 586.834 25.589C586.671 25.8037 586.547 26.0673 586.463 26.38C586.384 26.688 586.344 27.0357 586.344 27.423C586.344 27.8243 586.389 28.1813 586.477 28.494C586.566 28.8067 586.692 29.0703 586.855 29.285C587.023 29.4997 587.224 29.663 587.457 29.775C587.695 29.887 587.961 29.943 588.255 29.943C588.545 29.943 588.78 29.908 588.962 29.838C589.144 29.768 589.296 29.691 589.417 29.607C589.539 29.523 589.641 29.446 589.725 29.376C589.814 29.306 589.907 29.271 590.005 29.271C590.127 29.271 590.22 29.3177 590.285 29.411L590.712 29.964C590.54 30.174 590.348 30.3513 590.138 30.496C589.928 30.6407 589.707 30.7597 589.473 30.853C589.24 30.9417 588.997 31.0047 588.745 31.042C588.493 31.084 588.239 31.105 587.982 31.105C587.539 31.105 587.124 31.0233 586.736 30.86C586.354 30.692 586.018 30.4517 585.728 30.139C585.444 29.8217 585.217 29.4367 585.049 28.984C584.886 28.5267 584.804 28.0063 584.804 27.423C584.804 26.8957 584.879 26.408 585.028 25.96C585.178 25.5073 585.395 25.1177 585.679 24.791C585.969 24.4643 586.326 24.21 586.75 24.028C587.175 23.8413 587.665 23.748 588.22 23.748C588.738 23.748 589.193 23.832 589.585 24C589.982 24.168 590.334 24.406 590.642 24.714L590.243 25.26ZM594.212 31.112C593.619 31.112 593.162 30.9463 592.84 30.615C592.523 30.279 592.364 29.8077 592.364 29.201V25.043H591.58C591.496 25.043 591.424 25.0173 591.363 24.966C591.302 24.91 591.272 24.8283 591.272 24.721V24.112L592.427 23.944L592.756 21.879C592.779 21.7997 592.819 21.7367 592.875 21.69C592.931 21.6387 593.006 21.613 593.099 21.613H593.869V23.958H595.85V25.043H593.869V29.096C593.869 29.3527 593.932 29.5487 594.058 29.684C594.184 29.8193 594.352 29.887 594.562 29.887C594.679 29.887 594.779 29.873 594.863 29.845C594.947 29.8123 595.019 29.7797 595.08 29.747C595.141 29.7097 595.192 29.677 595.234 29.649C595.281 29.6163 595.325 29.6 595.367 29.6C595.451 29.6 595.519 29.6467 595.57 29.74L596.018 30.475C595.785 30.6803 595.509 30.839 595.192 30.951C594.875 31.0583 594.548 31.112 594.212 31.112ZM602.027 29.208C602.237 29.4787 602.466 29.67 602.713 29.782C602.965 29.8893 603.243 29.943 603.546 29.943C604.134 29.943 604.592 29.7283 604.918 29.299C605.25 28.8697 605.415 28.2303 605.415 27.381C605.415 26.9423 605.378 26.569 605.303 26.261C605.229 25.9483 605.121 25.694 604.981 25.498C604.841 25.302 604.671 25.1597 604.47 25.071C604.27 24.9823 604.043 24.938 603.791 24.938C603.409 24.938 603.077 25.022 602.797 25.19C602.522 25.3533 602.265 25.589 602.027 25.897V29.208ZM601.95 24.896C602.249 24.546 602.587 24.2637 602.965 24.049C603.348 23.8343 603.791 23.727 604.295 23.727C604.697 23.727 605.061 23.8087 605.387 23.972C605.714 24.1307 605.994 24.364 606.227 24.672C606.461 24.98 606.64 25.3627 606.766 25.82C606.897 26.2727 606.962 26.793 606.962 27.381C606.962 27.9083 606.89 28.4007 606.745 28.858C606.605 29.3107 606.402 29.705 606.136 30.041C605.87 30.3723 605.548 30.6337 605.17 30.825C604.792 31.0117 604.365 31.105 603.889 31.105C603.469 31.105 603.112 31.0373 602.818 30.902C602.529 30.7667 602.265 30.58 602.027 30.342V33.373H600.522V23.86H601.432C601.638 23.86 601.768 23.9557 601.824 24.147L601.95 24.896ZM613.108 26.625C613.108 26.373 613.07 26.1397 612.996 25.925C612.926 25.7057 612.821 25.5167 612.681 25.358C612.541 25.1947 612.366 25.0687 612.156 24.98C611.95 24.8867 611.712 24.84 611.442 24.84C610.896 24.84 610.466 24.9963 610.154 25.309C609.841 25.6217 609.643 26.0603 609.559 26.625H613.108ZM609.517 27.549C609.535 27.955 609.598 28.3073 609.706 28.606C609.813 28.9 609.955 29.145 610.133 29.341C610.315 29.537 610.529 29.684 610.777 29.782C611.029 29.8753 611.309 29.922 611.617 29.922C611.911 29.922 612.165 29.8893 612.38 29.824C612.594 29.754 612.781 29.6793 612.94 29.6C613.098 29.516 613.234 29.4413 613.346 29.376C613.458 29.306 613.56 29.271 613.654 29.271C613.775 29.271 613.868 29.3177 613.934 29.411L614.361 29.964C614.183 30.174 613.983 30.3513 613.759 30.496C613.535 30.6407 613.297 30.7597 613.045 30.853C612.793 30.9417 612.534 31.0047 612.268 31.042C612.002 31.084 611.743 31.105 611.491 31.105C610.996 31.105 610.536 31.0233 610.112 30.86C609.692 30.692 609.325 30.447 609.013 30.125C608.705 29.803 608.462 29.404 608.285 28.928C608.112 28.452 608.026 27.9037 608.026 27.283C608.026 26.7883 608.103 26.3263 608.257 25.897C608.415 25.4677 608.639 25.0943 608.929 24.777C609.223 24.4597 609.577 24.21 609.993 24.028C610.413 23.8413 610.886 23.748 611.414 23.748C611.852 23.748 612.258 23.8203 612.632 23.965C613.005 24.105 613.327 24.3127 613.598 24.588C613.868 24.8633 614.078 25.2017 614.228 25.603C614.382 25.9997 614.459 26.4523 614.459 26.961C614.459 27.1943 614.433 27.3507 614.382 27.43C614.33 27.5093 614.237 27.549 614.102 27.549H609.517ZM617.283 25.183C617.507 24.7303 617.778 24.3757 618.095 24.119C618.413 23.8577 618.793 23.727 619.236 23.727C619.39 23.727 619.535 23.7457 619.67 23.783C619.806 23.8157 619.927 23.867 620.034 23.937L619.929 25.071C619.911 25.1503 619.88 25.2063 619.838 25.239C619.801 25.267 619.75 25.281 619.684 25.281C619.614 25.281 619.514 25.2693 619.383 25.246C619.253 25.218 619.115 25.204 618.97 25.204C618.76 25.204 618.574 25.2343 618.41 25.295C618.252 25.3557 618.107 25.4443 617.976 25.561C617.85 25.6777 617.738 25.82 617.64 25.988C617.542 26.156 617.451 26.3473 617.367 26.562V31H615.862V23.86H616.737C616.896 23.86 617.006 23.8903 617.066 23.951C617.127 24.007 617.169 24.1073 617.192 24.252L617.283 25.183ZM625.252 25.155C625.215 25.2203 625.173 25.267 625.126 25.295C625.08 25.323 625.021 25.337 624.951 25.337C624.872 25.337 624.786 25.3137 624.692 25.267C624.599 25.2157 624.489 25.1597 624.363 25.099C624.237 25.0383 624.088 24.9847 623.915 24.938C623.747 24.8867 623.549 24.861 623.32 24.861C623.134 24.861 622.963 24.8843 622.809 24.931C622.66 24.973 622.532 25.036 622.424 25.12C622.322 25.1993 622.242 25.295 622.186 25.407C622.13 25.5143 622.102 25.631 622.102 25.757C622.102 25.925 622.154 26.065 622.256 26.177C622.359 26.289 622.494 26.387 622.662 26.471C622.83 26.5503 623.022 26.6227 623.236 26.688C623.451 26.7533 623.67 26.8233 623.894 26.898C624.118 26.9727 624.338 27.059 624.552 27.157C624.767 27.255 624.958 27.3763 625.126 27.521C625.294 27.661 625.43 27.8337 625.532 28.039C625.635 28.2397 625.686 28.4847 625.686 28.774C625.686 29.11 625.626 29.4203 625.504 29.705C625.383 29.9897 625.206 30.237 624.972 30.447C624.739 30.657 624.447 30.8203 624.097 30.937C623.752 31.0537 623.355 31.112 622.907 31.112C622.66 31.112 622.42 31.0887 622.186 31.042C621.958 31 621.738 30.9417 621.528 30.867C621.323 30.7877 621.129 30.6943 620.947 30.587C620.77 30.4797 620.611 30.363 620.471 30.237L620.821 29.663C620.863 29.593 620.915 29.5393 620.975 29.502C621.041 29.46 621.12 29.439 621.213 29.439C621.311 29.439 621.407 29.4717 621.5 29.537C621.598 29.5977 621.71 29.6653 621.836 29.74C621.967 29.8147 622.123 29.8847 622.305 29.95C622.487 30.0107 622.714 30.041 622.984 30.041C623.208 30.041 623.402 30.0153 623.565 29.964C623.729 29.908 623.864 29.8333 623.971 29.74C624.079 29.6467 624.158 29.5417 624.209 29.425C624.261 29.3037 624.286 29.1753 624.286 29.04C624.286 28.858 624.235 28.7087 624.132 28.592C624.03 28.4753 623.892 28.375 623.719 28.291C623.551 28.207 623.358 28.1323 623.138 28.067C622.924 28.0017 622.704 27.9317 622.48 27.857C622.256 27.7823 622.035 27.696 621.815 27.598C621.601 27.5 621.407 27.3763 621.234 27.227C621.066 27.073 620.931 26.8887 620.828 26.674C620.726 26.4547 620.674 26.1887 620.674 25.876C620.674 25.5913 620.73 25.3207 620.842 25.064C620.959 24.8073 621.127 24.581 621.346 24.385C621.57 24.189 621.843 24.035 622.165 23.923C622.492 23.8063 622.868 23.748 623.292 23.748C623.773 23.748 624.209 23.825 624.601 23.979C624.993 24.133 625.322 24.343 625.588 24.609L625.252 25.155ZM630.188 23.748C630.715 23.748 631.191 23.8343 631.616 24.007C632.045 24.1797 632.409 24.4247 632.708 24.742C633.011 25.0593 633.244 25.4443 633.408 25.897C633.571 26.3497 633.653 26.8583 633.653 27.423C633.653 27.9877 633.571 28.4963 633.408 28.949C633.244 29.4017 633.011 29.789 632.708 30.111C632.409 30.4283 632.045 30.6733 631.616 30.846C631.191 31.0187 630.715 31.105 630.188 31.105C629.656 31.105 629.175 31.0187 628.746 30.846C628.321 30.6733 627.957 30.4283 627.654 30.111C627.35 29.789 627.117 29.4017 626.954 28.949C626.79 28.4963 626.709 27.9877 626.709 27.423C626.709 26.8583 626.79 26.3497 626.954 25.897C627.117 25.4443 627.35 25.0593 627.654 24.742C627.957 24.4247 628.321 24.1797 628.746 24.007C629.175 23.8343 629.656 23.748 630.188 23.748ZM630.188 29.929C630.832 29.929 631.31 29.7143 631.623 29.285C631.94 28.851 632.099 28.2327 632.099 27.43C632.099 26.6273 631.94 26.009 631.623 25.575C631.31 25.1363 630.832 24.917 630.188 24.917C629.534 24.917 629.049 25.1363 628.732 25.575C628.414 26.009 628.256 26.6273 628.256 27.43C628.256 28.2327 628.414 28.851 628.732 29.285C629.049 29.7143 629.534 29.929 630.188 29.929ZM636.506 24.805C636.66 24.6463 636.818 24.504 636.982 24.378C637.15 24.2473 637.327 24.1353 637.514 24.042C637.7 23.9487 637.899 23.8763 638.109 23.825C638.319 23.7737 638.547 23.748 638.795 23.748C639.187 23.748 639.53 23.8133 639.824 23.944C640.122 24.0747 640.372 24.259 640.573 24.497C640.778 24.735 640.932 25.022 641.035 25.358C641.137 25.6893 641.189 26.0557 641.189 26.457V31H639.691V26.457C639.691 25.9763 639.579 25.603 639.355 25.337C639.135 25.071 638.799 24.938 638.347 24.938C638.011 24.938 637.698 25.015 637.409 25.169C637.124 25.323 636.856 25.533 636.604 25.799V31H635.099V23.86H636.009C636.214 23.86 636.345 23.9557 636.401 24.147L636.506 24.805Z" fill="#595959"/>
</svg>
