<svg width="1366" height="176" viewBox="0 0 1366 176" fill="none" xmlns="http://www.w3.org/2000/svg">
<path d="M0 0H1366V146C1366 162.569 1352.57 176 1336 176H30C13.4315 176 0 162.569 0 146V0Z" fill="#2395FF"/>
<path d="M20.3188 170.013C22.5266 173.674 25.6273 175.751 28.8722 175.746L74.7643 175.65C78.386 175.642 81.9556 174.337 85.1844 171.838L187.473 92.8007C196.874 85.5366 205.3 75.1678 211.034 61.5871C217.471 46.3416 218.171 35.309 215.629 27.515C213.094 19.7156 206.932 13.9878 195.151 12.8209C184.657 11.7824 174.219 15.9899 164.819 23.2486L130.187 50.0085L53.3018 6.0814C52.3774 5.13315 51.3034 4.5781 50.1909 4.47363C49.0784 4.36917 47.9677 4.71909 46.9738 5.48721L23.859 23.3503C20.1079 26.2463 19.2009 33.869 22.0414 38.6225L76.9615 91.1359L40.6774 119.175L15.2424 99.6526C14.3661 98.9798 13.3981 98.6303 12.4168 98.6321C11.4354 98.634 10.4681 98.9872 9.59285 99.6633L-4.51508 110.567C-8.18533 113.405 -9.1521 120.802 -6.47325 125.599L20.3188 170.013Z" fill="#41A4FF"/>
</svg>
