<svg width="26" height="26" viewBox="0 0 26 26" fill="none" xmlns="http://www.w3.org/2000/svg">
<path d="M18.4165 6.49984H16.2498V3.24984C16.2498 2.654 15.7623 2.1665 15.1665 2.1665H10.8332C10.2373 2.1665 9.74984 2.654 9.74984 3.24984V6.49984H7.58317C6.3915 6.49984 5.4165 7.47484 5.4165 8.6665V20.5832C5.4165 21.7748 6.3915 22.7498 7.58317 22.7498C7.58317 23.3457 8.07067 23.8332 8.6665 23.8332C9.26234 23.8332 9.74984 23.3457 9.74984 22.7498H16.2498C16.2498 23.3457 16.7373 23.8332 17.3332 23.8332C17.929 23.8332 18.4165 23.3457 18.4165 22.7498C19.6082 22.7498 20.5832 21.7748 20.5832 20.5832V8.6665C20.5832 7.47484 19.6082 6.49984 18.4165 6.49984ZM10.2915 19.4998H8.6665V9.74984H10.2915V19.4998ZM13.8123 19.4998H12.1873V9.74984H13.8123V19.4998ZM14.6248 6.49984H11.3748V3.7915H14.6248V6.49984ZM17.3332 19.4998H15.7082V9.74984H17.3332V19.4998Z" fill="#979797"/>
</svg>
