<svg width="25" height="24" viewBox="0 0 25 24" fill="none" xmlns="http://www.w3.org/2000/svg">
<path d="M10.9745 2.99627C10.4784 2.99627 10.0757 2.5936 10.0757 2.09745V1.19863C10.0757 0.702477 10.4784 0.299805 10.9745 0.299805C11.4707 0.299805 11.8733 0.702477 11.8733 1.19863V2.09745C11.8733 2.5936 11.4707 2.99627 10.9745 2.99627Z" fill="#595959"/>
<path d="M18.8188 10.8408C18.3226 10.8408 17.92 10.4382 17.92 9.94202C17.92 6.2892 14.9539 3.17658 11.3082 3.00401C7.6581 2.83548 4.4039 5.64655 4.0601 9.27824C4.03943 9.49531 4.02909 9.71821 4.02909 9.94202C4.02909 10.4382 3.62642 10.8408 3.13027 10.8408C2.63412 10.8408 2.23145 10.4382 2.23145 9.94202C2.23145 9.66159 2.24448 9.38116 2.27054 9.10881C2.70333 4.5356 6.80062 0.99244 11.3932 1.20861C15.9835 1.42567 19.7176 5.34364 19.7176 9.94202C19.7176 10.4386 19.3149 10.8408 18.8188 10.8408Z" fill="#595959"/>
<path d="M20.5036 16.9711C20.282 16.9711 20.0595 16.8893 19.8856 16.7253C18.6362 15.5425 17.9194 13.8769 17.9194 12.1561C17.9194 11.66 18.3221 11.2573 18.8183 11.2573C19.3144 11.2573 19.7171 11.66 19.7171 12.1561C19.7171 13.3853 20.229 14.5753 21.1215 15.4198C21.4819 15.7609 21.4976 16.3298 21.1565 16.6907C20.9799 16.8768 20.7417 16.9711 20.5036 16.9711Z" fill="#595959"/>
<path d="M1.44479 16.9711C1.20615 16.9711 0.96841 16.8772 0.791791 16.6903C0.450687 16.3298 0.466416 15.7609 0.826845 15.4198C1.71938 14.5753 2.23126 13.3857 2.23126 12.1561C2.23126 11.66 2.63393 11.2573 3.13008 11.2573C3.62623 11.2573 4.02891 11.66 4.02891 12.1561C4.02891 13.8778 3.31209 15.5434 2.06273 16.7253C1.88836 16.8893 1.66635 16.9711 1.44479 16.9711Z" fill="#595959"/>
<path d="M10.9746 23.6693C8.53877 23.6693 6.48047 21.611 6.48047 19.1752C6.48047 18.679 6.88314 18.2764 7.37929 18.2764C7.87544 18.2764 8.27812 18.679 8.27812 19.1752C8.27812 20.6367 9.5131 21.8717 10.9746 21.8717C12.4361 21.8717 13.6711 20.6367 13.6711 19.1752C13.6711 18.679 14.0737 18.2764 14.5699 18.2764C15.066 18.2764 15.4687 18.679 15.4687 19.1752C15.4687 21.611 13.4104 23.6693 10.9746 23.6693Z" fill="#595959"/>
<path d="M2.68032 20.0737C1.5851 20.0737 0.610779 19.4041 0.19777 18.3678C-0.215689 17.3301 0.0310381 16.1728 0.826497 15.4196C1.18692 15.0781 1.75543 15.0938 2.09743 15.4542C2.43854 15.8147 2.42326 16.3836 2.06283 16.7252C1.66914 17.0982 1.81385 17.5678 1.86778 17.7026C1.92126 17.8365 2.13833 18.2761 2.68032 18.2761C3.17647 18.2761 3.57914 18.6787 3.57914 19.1749C3.57914 19.671 3.17692 20.0737 2.68032 20.0737Z" fill="#595959"/>
<path d="M19.268 20.0737C18.7718 20.0737 18.3691 19.6711 18.3691 19.1749C18.3691 18.6788 18.7718 18.2761 19.268 18.2761C19.8104 18.2761 20.0279 17.8348 20.0818 17.6995C20.1353 17.5651 20.2796 17.0973 19.8859 16.7247C19.5255 16.3832 19.5097 15.8147 19.8508 15.4538C20.1924 15.0934 20.7609 15.0776 21.1218 15.4187C21.9172 16.172 22.1644 17.3283 21.7519 18.3642C21.3384 19.4028 20.3632 20.0737 19.268 20.0737Z" fill="#595959"/>
<path d="M3.12978 13.0544C2.63363 13.0544 2.23096 12.6517 2.23096 12.1556V9.94179C2.23096 9.44564 2.63363 9.04297 3.12978 9.04297C3.62594 9.04297 4.02861 9.44564 4.02861 9.94179V12.1556C4.02861 12.6517 3.62639 13.0544 3.12978 13.0544Z" fill="#595959"/>
<path d="M18.8187 13.0544C18.3226 13.0544 17.9199 12.6517 17.9199 12.1556V9.94179C17.9199 9.44564 18.3226 9.04297 18.8187 9.04297C19.3149 9.04297 19.7176 9.44564 19.7176 9.94179V12.1556C19.7176 12.6517 19.3149 13.0544 18.8187 13.0544Z" fill="#595959"/>
<path d="M19.2683 20.074H2.68056C2.18441 20.074 1.78174 19.6713 1.78174 19.1752C1.78174 18.679 2.18441 18.2764 2.68056 18.2764H19.2679C19.764 18.2764 20.1667 18.679 20.1667 19.1752C20.1667 19.6713 19.7645 20.074 19.2683 20.074Z" fill="#595959"/>
<circle cx="18.7645" cy="5.39294" r="4.89294" fill="#2395FF" stroke="white"/>
</svg>
