<svg width="17" height="17" viewBox="0 0 17 17" fill="none" xmlns="http://www.w3.org/2000/svg">
<path d="M12.3092 16.6888L9.43263 13.8123C9.22514 13.6048 9.12141 13.3329 9.12141 13.0609C9.12141 12.789 9.22514 12.5171 9.43263 12.3096C9.84757 11.8947 10.5203 11.8947 10.9352 12.3096L11.998 13.3724L11.998 2.23291C11.998 1.64611 12.4737 1.17041 13.0605 1.17041C13.6473 1.17041 14.123 1.64611 14.123 2.23291L14.123 13.3724L15.1857 12.3096C15.6006 11.8947 16.2734 11.8947 16.6883 12.3096C17.1032 12.7246 17.1032 13.3973 16.6883 13.8123L13.8118 16.6888C13.3968 17.1037 12.7241 17.1037 12.3092 16.6888ZM5.00107 14.186L5.00107 3.62761L6.06381 4.69037C6.47875 5.10528 7.15147 5.10528 7.56641 4.69037C7.98135 4.2754 7.98135 3.6027 7.56641 3.18773L4.68986 0.311179C4.27492 -0.103727 3.60219 -0.103727 3.18725 0.311179L0.310701 3.18773C0.103216 3.39522 -0.00051133 3.66712 -0.000511342 3.93905C-0.000511354 4.21099 0.103216 4.48289 0.310701 4.69037C0.725641 5.10528 1.39837 5.10528 1.81331 4.69037L2.87604 3.62761L2.87604 14.186C2.87604 14.7728 3.35174 15.2485 3.93854 15.2485C4.52534 15.2485 5.00107 14.7728 5.00107 14.186Z" fill="black"/>
</svg>
