<svg width="733" height="50" viewBox="0 0 733 50" fill="none" xmlns="http://www.w3.org/2000/svg">
<rect width="733" height="50" rx="10" fill="#F24545" fill-opacity="0.1"/>
<path d="M78.718 20.969V31H77.528V23.629C77.528 23.531 77.5303 23.426 77.535 23.314C77.5443 23.202 77.5537 23.0877 77.563 22.971L74.119 29.243C74.0117 29.453 73.8483 29.558 73.629 29.558H73.433C73.2137 29.558 73.0503 29.453 72.943 29.243L69.429 22.943C69.457 23.1903 69.471 23.419 69.471 23.629V31H68.281V20.969H69.282C69.4033 20.969 69.4967 20.9807 69.562 21.004C69.6273 21.0273 69.6903 21.0927 69.751 21.2L73.216 27.374C73.272 27.486 73.3257 27.6027 73.377 27.724C73.433 27.8453 73.4843 27.969 73.531 28.095C73.5777 27.969 73.6267 27.8453 73.678 27.724C73.7293 27.598 73.7853 27.479 73.846 27.367L77.248 21.2C77.304 21.0927 77.3647 21.0273 77.43 21.004C77.5 20.9807 77.5957 20.969 77.717 20.969H78.718ZM84.6269 27.808C84.0529 27.8267 83.5629 27.8733 83.1569 27.948C82.7555 28.018 82.4265 28.1113 82.1699 28.228C81.9179 28.3447 81.7335 28.4823 81.6169 28.641C81.5049 28.7997 81.4489 28.977 81.4489 29.173C81.4489 29.3597 81.4792 29.5207 81.5399 29.656C81.6005 29.7913 81.6822 29.9033 81.7849 29.992C81.8922 30.076 82.0159 30.139 82.1559 30.181C82.3005 30.2183 82.4545 30.237 82.6179 30.237C82.8372 30.237 83.0379 30.216 83.2199 30.174C83.4019 30.1273 83.5722 30.062 83.7309 29.978C83.8942 29.894 84.0482 29.7937 84.1929 29.677C84.3422 29.5603 84.4869 29.4273 84.6269 29.278V27.808ZM80.6019 24.91C80.9939 24.532 81.4162 24.2497 81.8689 24.063C82.3215 23.8763 82.8232 23.783 83.3739 23.783C83.7705 23.783 84.1229 23.8483 84.4309 23.979C84.7389 24.1097 84.9979 24.2917 85.2079 24.525C85.4179 24.7583 85.5765 25.0407 85.6839 25.372C85.7912 25.7033 85.8449 26.0673 85.8449 26.464V31H85.2919C85.1705 31 85.0772 30.9813 85.0119 30.944C84.9465 30.902 84.8952 30.8227 84.8579 30.706L84.7179 30.034C84.5312 30.2067 84.3492 30.3607 84.1719 30.496C83.9945 30.6267 83.8079 30.7387 83.6119 30.832C83.4159 30.9207 83.2059 30.9883 82.9819 31.035C82.7625 31.0863 82.5175 31.112 82.2469 31.112C81.9715 31.112 81.7125 31.0747 81.4699 31C81.2272 30.9207 81.0149 30.804 80.8329 30.65C80.6555 30.496 80.5132 30.3023 80.4059 30.069C80.3032 29.831 80.2519 29.551 80.2519 29.229C80.2519 28.949 80.3289 28.6807 80.4829 28.424C80.6369 28.1627 80.8865 27.9317 81.2319 27.731C81.5772 27.5303 82.0275 27.367 82.5829 27.241C83.1382 27.1103 83.8195 27.0357 84.6269 27.017V26.464C84.6269 25.9133 84.5079 25.498 84.2699 25.218C84.0319 24.9333 83.6842 24.791 83.2269 24.791C82.9189 24.791 82.6599 24.8307 82.4499 24.91C82.2445 24.9847 82.0649 25.071 81.9109 25.169C81.7615 25.2623 81.6309 25.3487 81.5189 25.428C81.4115 25.5027 81.3042 25.54 81.1969 25.54C81.1129 25.54 81.0405 25.519 80.9799 25.477C80.9192 25.4303 80.8679 25.3743 80.8259 25.309L80.6019 24.91ZM88.9959 20.689V26.758H89.3179C89.4112 26.758 89.4882 26.7463 89.5489 26.723C89.6142 26.695 89.6819 26.6413 89.7519 26.562L91.9919 24.161C92.0572 24.0817 92.1249 24.021 92.1949 23.979C92.2695 23.9323 92.3675 23.909 92.4889 23.909H93.6159L91.0049 26.688C90.8789 26.8467 90.7435 26.9703 90.5989 27.059C90.6829 27.115 90.7575 27.1803 90.8229 27.255C90.8929 27.325 90.9582 27.4067 91.0189 27.5L93.7909 31H92.6779C92.5705 31 92.4772 30.9837 92.3979 30.951C92.3232 30.9137 92.2579 30.8483 92.2019 30.755L89.8709 27.85C89.8009 27.752 89.7309 27.689 89.6609 27.661C89.5955 27.6283 89.4929 27.612 89.3529 27.612H88.9959V31H87.7429V20.689H88.9959ZM99.2018 26.681C99.2018 26.3917 99.1598 26.128 99.0758 25.89C98.9964 25.6473 98.8774 25.4397 98.7188 25.267C98.5648 25.0897 98.3758 24.9543 98.1518 24.861C97.9278 24.763 97.6734 24.714 97.3888 24.714C96.7914 24.714 96.3178 24.889 95.9678 25.239C95.6224 25.5843 95.4078 26.065 95.3238 26.681H99.2018ZM100.21 30.006C100.056 30.1927 99.8714 30.356 99.6568 30.496C99.4421 30.6313 99.2111 30.7433 98.9638 30.832C98.7211 30.9207 98.4691 30.986 98.2078 31.028C97.9464 31.0747 97.6874 31.098 97.4308 31.098C96.9408 31.098 96.4881 31.0163 96.0728 30.853C95.6621 30.685 95.3051 30.4423 95.0018 30.125C94.7031 29.803 94.4698 29.4063 94.3018 28.935C94.1338 28.4637 94.0498 27.9223 94.0498 27.311C94.0498 26.8163 94.1244 26.3543 94.2738 25.925C94.4278 25.4957 94.6471 25.1247 94.9318 24.812C95.2164 24.4947 95.5641 24.2473 95.9748 24.07C96.3854 23.888 96.8474 23.797 97.3608 23.797C97.7854 23.797 98.1774 23.8693 98.5368 24.014C98.9008 24.154 99.2134 24.3593 99.4748 24.63C99.7408 24.896 99.9484 25.2273 100.098 25.624C100.247 26.016 100.322 26.464 100.322 26.968C100.322 27.164 100.301 27.2947 100.259 27.36C100.217 27.4253 100.137 27.458 100.021 27.458H95.2818C95.2958 27.906 95.3564 28.2957 95.4638 28.627C95.5758 28.9583 95.7298 29.236 95.9258 29.46C96.1218 29.6793 96.3551 29.845 96.6258 29.957C96.8964 30.0643 97.1998 30.118 97.5358 30.118C97.8484 30.118 98.1168 30.083 98.3408 30.013C98.5694 29.9383 98.7654 29.859 98.9288 29.775C99.0921 29.691 99.2274 29.614 99.3348 29.544C99.4468 29.4693 99.5424 29.432 99.6218 29.432C99.7244 29.432 99.8038 29.4717 99.8598 29.551L100.21 30.006ZM109.564 25.078C109.508 25.1807 109.422 25.232 109.305 25.232C109.235 25.232 109.156 25.2063 109.067 25.155C108.979 25.1037 108.869 25.0477 108.738 24.987C108.612 24.9217 108.461 24.8633 108.283 24.812C108.106 24.756 107.896 24.728 107.653 24.728C107.443 24.728 107.254 24.756 107.086 24.812C106.918 24.8633 106.774 24.9357 106.652 25.029C106.536 25.1223 106.445 25.232 106.379 25.358C106.319 25.4793 106.288 25.6123 106.288 25.757C106.288 25.939 106.34 26.0907 106.442 26.212C106.55 26.3333 106.69 26.4383 106.862 26.527C107.035 26.6157 107.231 26.695 107.45 26.765C107.67 26.8303 107.894 26.9027 108.122 26.982C108.356 27.0567 108.582 27.1407 108.801 27.234C109.021 27.3273 109.217 27.444 109.389 27.584C109.562 27.724 109.7 27.8967 109.802 28.102C109.91 28.3027 109.963 28.5453 109.963 28.83C109.963 29.1567 109.905 29.46 109.788 29.74C109.672 30.0153 109.499 30.2557 109.27 30.461C109.042 30.6617 108.762 30.8203 108.43 30.937C108.099 31.0537 107.716 31.112 107.282 31.112C106.788 31.112 106.34 31.0327 105.938 30.874C105.537 30.7107 105.196 30.503 104.916 30.251L105.21 29.775C105.248 29.7143 105.292 29.6677 105.343 29.635C105.395 29.6023 105.46 29.586 105.539 29.586C105.623 29.586 105.712 29.6187 105.805 29.684C105.899 29.7493 106.011 29.8217 106.141 29.901C106.277 29.9803 106.44 30.0527 106.631 30.118C106.823 30.1833 107.061 30.216 107.345 30.216C107.588 30.216 107.8 30.1857 107.982 30.125C108.164 30.0597 108.316 29.9733 108.437 29.866C108.559 29.7587 108.647 29.635 108.703 29.495C108.764 29.355 108.794 29.2057 108.794 29.047C108.794 28.851 108.741 28.69 108.633 28.564C108.531 28.4333 108.393 28.3237 108.22 28.235C108.048 28.1417 107.849 28.0623 107.625 27.997C107.406 27.927 107.18 27.8547 106.946 27.78C106.718 27.7053 106.491 27.6213 106.267 27.528C106.048 27.43 105.852 27.3087 105.679 27.164C105.507 27.0193 105.367 26.842 105.259 26.632C105.157 26.4173 105.105 26.1583 105.105 25.855C105.105 25.5843 105.161 25.3253 105.273 25.078C105.385 24.826 105.549 24.6067 105.763 24.42C105.978 24.2287 106.242 24.077 106.554 23.965C106.867 23.853 107.224 23.797 107.625 23.797C108.092 23.797 108.51 23.8717 108.878 24.021C109.252 24.1657 109.574 24.3663 109.844 24.623L109.564 25.078ZM117.322 23.909V31H116.58C116.403 31 116.291 30.9137 116.244 30.741L116.146 29.978C115.838 30.3187 115.493 30.594 115.11 30.804C114.727 31.0093 114.289 31.112 113.794 31.112C113.407 31.112 113.064 31.049 112.765 30.923C112.471 30.7923 112.224 30.6103 112.023 30.377C111.822 30.1437 111.671 29.8613 111.568 29.53C111.47 29.1987 111.421 28.8323 111.421 28.431V23.909H112.667V28.431C112.667 28.9677 112.788 29.383 113.031 29.677C113.278 29.971 113.654 30.118 114.158 30.118C114.527 30.118 114.87 30.0317 115.187 29.859C115.509 29.6817 115.805 29.439 116.076 29.131V23.909H117.322ZM120.481 25.33C120.705 24.8447 120.98 24.4667 121.307 24.196C121.633 23.9207 122.032 23.783 122.504 23.783C122.653 23.783 122.795 23.7993 122.931 23.832C123.071 23.8647 123.194 23.916 123.302 23.986L123.211 24.917C123.183 25.0337 123.113 25.092 123.001 25.092C122.935 25.092 122.84 25.078 122.714 25.05C122.588 25.022 122.445 25.008 122.287 25.008C122.063 25.008 121.862 25.0407 121.685 25.106C121.512 25.1713 121.356 25.2693 121.216 25.4C121.08 25.526 120.957 25.6847 120.845 25.876C120.737 26.0627 120.639 26.2773 120.551 26.52V31H119.298V23.909H120.012C120.147 23.909 120.24 23.9347 120.292 23.986C120.343 24.0373 120.378 24.126 120.397 24.252L120.481 25.33ZM128.856 26.681C128.856 26.3917 128.814 26.128 128.73 25.89C128.651 25.6473 128.532 25.4397 128.373 25.267C128.219 25.0897 128.03 24.9543 127.806 24.861C127.582 24.763 127.328 24.714 127.043 24.714C126.446 24.714 125.972 24.889 125.622 25.239C125.277 25.5843 125.062 26.065 124.978 26.681H128.856ZM129.864 30.006C129.71 30.1927 129.526 30.356 129.311 30.496C129.096 30.6313 128.865 30.7433 128.618 30.832C128.375 30.9207 128.123 30.986 127.862 31.028C127.601 31.0747 127.342 31.098 127.085 31.098C126.595 31.098 126.142 31.0163 125.727 30.853C125.316 30.685 124.959 30.4423 124.656 30.125C124.357 29.803 124.124 29.4063 123.956 28.935C123.788 28.4637 123.704 27.9223 123.704 27.311C123.704 26.8163 123.779 26.3543 123.928 25.925C124.082 25.4957 124.301 25.1247 124.586 24.812C124.871 24.4947 125.218 24.2473 125.629 24.07C126.04 23.888 126.502 23.797 127.015 23.797C127.44 23.797 127.832 23.8693 128.191 24.014C128.555 24.154 128.868 24.3593 129.129 24.63C129.395 24.896 129.603 25.2273 129.752 25.624C129.901 26.016 129.976 26.464 129.976 26.968C129.976 27.164 129.955 27.2947 129.913 27.36C129.871 27.4253 129.792 27.458 129.675 27.458H124.936C124.95 27.906 125.011 28.2957 125.118 28.627C125.23 28.9583 125.384 29.236 125.58 29.46C125.776 29.6793 126.009 29.845 126.28 29.957C126.551 30.0643 126.854 30.118 127.19 30.118C127.503 30.118 127.771 30.083 127.995 30.013C128.224 29.9383 128.42 29.859 128.583 29.775C128.746 29.691 128.882 29.614 128.989 29.544C129.101 29.4693 129.197 29.432 129.276 29.432C129.379 29.432 129.458 29.4717 129.514 29.551L129.864 30.006ZM137.266 31.112C136.706 31.112 136.274 30.9557 135.971 30.643C135.672 30.3303 135.523 29.88 135.523 29.292V24.952H134.669C134.594 24.952 134.531 24.931 134.48 24.889C134.428 24.8423 134.403 24.7723 134.403 24.679V24.182L135.565 24.035L135.852 21.844C135.866 21.774 135.896 21.718 135.943 21.676C135.994 21.6293 136.059 21.606 136.139 21.606H136.769V24.049H138.82V24.952H136.769V29.208C136.769 29.5067 136.841 29.7283 136.986 29.873C137.13 30.0177 137.317 30.09 137.546 30.09C137.676 30.09 137.788 30.0737 137.882 30.041C137.98 30.0037 138.064 29.964 138.134 29.922C138.204 29.88 138.262 29.8427 138.309 29.81C138.36 29.7727 138.404 29.754 138.442 29.754C138.507 29.754 138.565 29.7937 138.617 29.873L138.981 30.468C138.766 30.6687 138.507 30.8273 138.204 30.944C137.9 31.056 137.588 31.112 137.266 31.112ZM141.359 24.854C141.662 24.532 141.998 24.2753 142.367 24.084C142.736 23.8927 143.16 23.797 143.641 23.797C144.028 23.797 144.369 23.8623 144.663 23.993C144.962 24.119 145.209 24.301 145.405 24.539C145.606 24.7723 145.757 25.0547 145.86 25.386C145.963 25.7173 146.014 26.0837 146.014 26.485V31H144.761V26.485C144.761 25.9483 144.637 25.533 144.39 25.239C144.147 24.9403 143.776 24.791 143.277 24.791C142.908 24.791 142.563 24.8797 142.241 25.057C141.924 25.2343 141.63 25.4747 141.359 25.778V31H140.106V20.689H141.359V24.854ZM152.659 26.681C152.659 26.3917 152.617 26.128 152.533 25.89C152.453 25.6473 152.334 25.4397 152.176 25.267C152.022 25.0897 151.833 24.9543 151.609 24.861C151.385 24.763 151.13 24.714 150.846 24.714C150.248 24.714 149.775 24.889 149.425 25.239C149.079 25.5843 148.865 26.065 148.781 26.681H152.659ZM153.667 30.006C153.513 30.1927 153.328 30.356 153.114 30.496C152.899 30.6313 152.668 30.7433 152.421 30.832C152.178 30.9207 151.926 30.986 151.665 31.028C151.403 31.0747 151.144 31.098 150.888 31.098C150.398 31.098 149.945 31.0163 149.53 30.853C149.119 30.685 148.762 30.4423 148.459 30.125C148.16 29.803 147.927 29.4063 147.759 28.935C147.591 28.4637 147.507 27.9223 147.507 27.311C147.507 26.8163 147.581 26.3543 147.731 25.925C147.885 25.4957 148.104 25.1247 148.389 24.812C148.673 24.4947 149.021 24.2473 149.432 24.07C149.842 23.888 150.304 23.797 150.818 23.797C151.242 23.797 151.634 23.8693 151.994 24.014C152.358 24.154 152.67 24.3593 152.932 24.63C153.198 24.896 153.405 25.2273 153.555 25.624C153.704 26.016 153.779 26.464 153.779 26.968C153.779 27.164 153.758 27.2947 153.716 27.36C153.674 27.4253 153.594 27.458 153.478 27.458H148.739C148.753 27.906 148.813 28.2957 148.921 28.627C149.033 28.9583 149.187 29.236 149.383 29.46C149.579 29.6793 149.812 29.845 150.083 29.957C150.353 30.0643 150.657 30.118 150.993 30.118C151.305 30.118 151.574 30.083 151.798 30.013C152.026 29.9383 152.222 29.859 152.386 29.775C152.549 29.691 152.684 29.614 152.792 29.544C152.904 29.4693 152.999 29.432 153.079 29.432C153.181 29.432 153.261 29.4717 153.317 29.551L153.667 30.006ZM163.826 25.169C163.789 25.2203 163.752 25.26 163.714 25.288C163.677 25.316 163.626 25.33 163.56 25.33C163.49 25.33 163.413 25.302 163.329 25.246C163.245 25.1853 163.14 25.12 163.014 25.05C162.893 24.98 162.741 24.917 162.559 24.861C162.382 24.8003 162.163 24.77 161.901 24.77C161.551 24.77 161.243 24.833 160.977 24.959C160.711 25.0803 160.487 25.2577 160.305 25.491C160.128 25.7243 159.993 26.0067 159.899 26.338C159.811 26.6693 159.766 27.0403 159.766 27.451C159.766 27.8803 159.815 28.263 159.913 28.599C160.011 28.9303 160.149 29.2103 160.326 29.439C160.508 29.663 160.725 29.8357 160.977 29.957C161.234 30.0737 161.521 30.132 161.838 30.132C162.142 30.132 162.391 30.097 162.587 30.027C162.783 29.9523 162.944 29.8707 163.07 29.782C163.201 29.6933 163.308 29.614 163.392 29.544C163.481 29.4693 163.567 29.432 163.651 29.432C163.754 29.432 163.833 29.4717 163.889 29.551L164.239 30.006C164.085 30.1973 163.91 30.3607 163.714 30.496C163.518 30.6313 163.306 30.7457 163.077 30.839C162.853 30.9277 162.618 30.993 162.37 31.035C162.123 31.077 161.871 31.098 161.614 31.098C161.171 31.098 160.758 31.0163 160.375 30.853C159.997 30.6897 159.668 30.454 159.388 30.146C159.108 29.8333 158.889 29.4507 158.73 28.998C158.572 28.5453 158.492 28.0297 158.492 27.451C158.492 26.9237 158.565 26.436 158.709 25.988C158.859 25.54 159.073 25.155 159.353 24.833C159.638 24.5063 159.986 24.252 160.396 24.07C160.812 23.888 161.288 23.797 161.824 23.797C162.324 23.797 162.762 23.8787 163.14 24.042C163.523 24.2007 163.861 24.427 164.155 24.721L163.826 25.169ZM171.408 23.909V31H170.666C170.489 31 170.377 30.9137 170.33 30.741L170.232 29.978C169.924 30.3187 169.579 30.594 169.196 30.804C168.813 31.0093 168.375 31.112 167.88 31.112C167.493 31.112 167.15 31.049 166.851 30.923C166.557 30.7923 166.31 30.6103 166.109 30.377C165.908 30.1437 165.757 29.8613 165.654 29.53C165.556 29.1987 165.507 28.8323 165.507 28.431V23.909H166.753V28.431C166.753 28.9677 166.874 29.383 167.117 29.677C167.364 29.971 167.74 30.118 168.244 30.118C168.613 30.118 168.956 30.0317 169.273 29.859C169.595 29.6817 169.891 29.439 170.162 29.131V23.909H171.408ZM177.513 25.078C177.457 25.1807 177.371 25.232 177.254 25.232C177.184 25.232 177.105 25.2063 177.016 25.155C176.928 25.1037 176.818 25.0477 176.687 24.987C176.561 24.9217 176.41 24.8633 176.232 24.812C176.055 24.756 175.845 24.728 175.602 24.728C175.392 24.728 175.203 24.756 175.035 24.812C174.867 24.8633 174.723 24.9357 174.601 25.029C174.485 25.1223 174.394 25.232 174.328 25.358C174.268 25.4793 174.237 25.6123 174.237 25.757C174.237 25.939 174.289 26.0907 174.391 26.212C174.499 26.3333 174.639 26.4383 174.811 26.527C174.984 26.6157 175.18 26.695 175.399 26.765C175.619 26.8303 175.843 26.9027 176.071 26.982C176.305 27.0567 176.531 27.1407 176.75 27.234C176.97 27.3273 177.166 27.444 177.338 27.584C177.511 27.724 177.649 27.8967 177.751 28.102C177.859 28.3027 177.912 28.5453 177.912 28.83C177.912 29.1567 177.854 29.46 177.737 29.74C177.621 30.0153 177.448 30.2557 177.219 30.461C176.991 30.6617 176.711 30.8203 176.379 30.937C176.048 31.0537 175.665 31.112 175.231 31.112C174.737 31.112 174.289 31.0327 173.887 30.874C173.486 30.7107 173.145 30.503 172.865 30.251L173.159 29.775C173.197 29.7143 173.241 29.6677 173.292 29.635C173.344 29.6023 173.409 29.586 173.488 29.586C173.572 29.586 173.661 29.6187 173.754 29.684C173.848 29.7493 173.96 29.8217 174.09 29.901C174.226 29.9803 174.389 30.0527 174.58 30.118C174.772 30.1833 175.01 30.216 175.294 30.216C175.537 30.216 175.749 30.1857 175.931 30.125C176.113 30.0597 176.265 29.9733 176.386 29.866C176.508 29.7587 176.596 29.635 176.652 29.495C176.713 29.355 176.743 29.2057 176.743 29.047C176.743 28.851 176.69 28.69 176.582 28.564C176.48 28.4333 176.342 28.3237 176.169 28.235C175.997 28.1417 175.798 28.0623 175.574 27.997C175.355 27.927 175.129 27.8547 174.895 27.78C174.667 27.7053 174.44 27.6213 174.216 27.528C173.997 27.43 173.801 27.3087 173.628 27.164C173.456 27.0193 173.316 26.842 173.208 26.632C173.106 26.4173 173.054 26.1583 173.054 25.855C173.054 25.5843 173.11 25.3253 173.222 25.078C173.334 24.826 173.498 24.6067 173.712 24.42C173.927 24.2287 174.191 24.077 174.503 23.965C174.816 23.853 175.173 23.797 175.574 23.797C176.041 23.797 176.459 23.8717 176.827 24.021C177.201 24.1657 177.523 24.3663 177.793 24.623L177.513 25.078ZM181.617 31.112C181.057 31.112 180.625 30.9557 180.322 30.643C180.023 30.3303 179.874 29.88 179.874 29.292V24.952H179.02C178.945 24.952 178.882 24.931 178.831 24.889C178.78 24.8423 178.754 24.7723 178.754 24.679V24.182L179.916 24.035L180.203 21.844C180.217 21.774 180.247 21.718 180.294 21.676C180.345 21.6293 180.411 21.606 180.49 21.606H181.12V24.049H183.171V24.952H181.12V29.208C181.12 29.5067 181.192 29.7283 181.337 29.873C181.482 30.0177 181.668 30.09 181.897 30.09C182.028 30.09 182.14 30.0737 182.233 30.041C182.331 30.0037 182.415 29.964 182.485 29.922C182.555 29.88 182.613 29.8427 182.66 29.81C182.711 29.7727 182.756 29.754 182.793 29.754C182.858 29.754 182.917 29.7937 182.968 29.873L183.332 30.468C183.117 30.6687 182.858 30.8273 182.555 30.944C182.252 31.056 181.939 31.112 181.617 31.112ZM187.406 23.797C187.924 23.797 188.39 23.8833 188.806 24.056C189.221 24.2287 189.576 24.4737 189.87 24.791C190.164 25.1083 190.388 25.4933 190.542 25.946C190.7 26.394 190.78 26.8957 190.78 27.451C190.78 28.011 190.7 28.515 190.542 28.963C190.388 29.411 190.164 29.7937 189.87 30.111C189.576 30.4283 189.221 30.6733 188.806 30.846C188.39 31.014 187.924 31.098 187.406 31.098C186.883 31.098 186.412 31.014 185.992 30.846C185.576 30.6733 185.222 30.4283 184.928 30.111C184.634 29.7937 184.407 29.411 184.249 28.963C184.095 28.515 184.018 28.011 184.018 27.451C184.018 26.8957 184.095 26.394 184.249 25.946C184.407 25.4933 184.634 25.1083 184.928 24.791C185.222 24.4737 185.576 24.2287 185.992 24.056C186.412 23.8833 186.883 23.797 187.406 23.797ZM187.406 30.125C188.106 30.125 188.628 29.8917 188.974 29.425C189.319 28.9537 189.492 28.298 189.492 27.458C189.492 26.6133 189.319 25.9553 188.974 25.484C188.628 25.0127 188.106 24.777 187.406 24.777C187.051 24.777 186.741 24.8377 186.475 24.959C186.213 25.0803 185.994 25.2553 185.817 25.484C185.644 25.7127 185.513 25.995 185.425 26.331C185.341 26.6623 185.299 27.038 185.299 27.458C185.299 28.298 185.471 28.9537 185.817 29.425C186.167 29.8917 186.696 30.125 187.406 30.125ZM192.36 31V23.909H193.109C193.286 23.909 193.396 23.9953 193.438 24.168L193.529 24.896C193.79 24.574 194.084 24.3103 194.411 24.105C194.738 23.8997 195.116 23.797 195.545 23.797C196.021 23.797 196.406 23.93 196.7 24.196C196.999 24.462 197.213 24.8213 197.344 25.274C197.447 25.0173 197.577 24.7957 197.736 24.609C197.899 24.4223 198.081 24.2683 198.282 24.147C198.483 24.0257 198.695 23.937 198.919 23.881C199.148 23.825 199.379 23.797 199.612 23.797C199.985 23.797 200.317 23.8577 200.606 23.979C200.9 24.0957 201.147 24.2683 201.348 24.497C201.553 24.7257 201.71 25.008 201.817 25.344C201.924 25.6753 201.978 26.0557 201.978 26.485V31H200.725V26.485C200.725 25.9297 200.604 25.5097 200.361 25.225C200.118 24.9357 199.768 24.791 199.311 24.791C199.106 24.791 198.91 24.8283 198.723 24.903C198.541 24.973 198.38 25.078 198.24 25.218C198.1 25.358 197.988 25.5353 197.904 25.75C197.825 25.96 197.785 26.205 197.785 26.485V31H196.532V26.485C196.532 25.9157 196.418 25.491 196.189 25.211C195.96 24.931 195.627 24.791 195.188 24.791C194.88 24.791 194.595 24.875 194.334 25.043C194.073 25.2063 193.832 25.4303 193.613 25.715V31H192.36ZM208.618 26.681C208.618 26.3917 208.576 26.128 208.492 25.89C208.412 25.6473 208.293 25.4397 208.135 25.267C207.981 25.0897 207.792 24.9543 207.568 24.861C207.344 24.763 207.089 24.714 206.805 24.714C206.207 24.714 205.734 24.889 205.384 25.239C205.038 25.5843 204.824 26.065 204.74 26.681H208.618ZM209.626 30.006C209.472 30.1927 209.287 30.356 209.073 30.496C208.858 30.6313 208.627 30.7433 208.38 30.832C208.137 30.9207 207.885 30.986 207.624 31.028C207.362 31.0747 207.103 31.098 206.847 31.098C206.357 31.098 205.904 31.0163 205.489 30.853C205.078 30.685 204.721 30.4423 204.418 30.125C204.119 29.803 203.886 29.4063 203.718 28.935C203.55 28.4637 203.466 27.9223 203.466 27.311C203.466 26.8163 203.54 26.3543 203.69 25.925C203.844 25.4957 204.063 25.1247 204.348 24.812C204.632 24.4947 204.98 24.2473 205.391 24.07C205.801 23.888 206.263 23.797 206.777 23.797C207.201 23.797 207.593 23.8693 207.953 24.014C208.317 24.154 208.629 24.3593 208.891 24.63C209.157 24.896 209.364 25.2273 209.514 25.624C209.663 26.016 209.738 26.464 209.738 26.968C209.738 27.164 209.717 27.2947 209.675 27.36C209.633 27.4253 209.553 27.458 209.437 27.458H204.698C204.712 27.906 204.772 28.2957 204.88 28.627C204.992 28.9583 205.146 29.236 205.342 29.46C205.538 29.6793 205.771 29.845 206.042 29.957C206.312 30.0643 206.616 30.118 206.952 30.118C207.264 30.118 207.533 30.083 207.757 30.013C207.985 29.9383 208.181 29.859 208.345 29.775C208.508 29.691 208.643 29.614 208.751 29.544C208.863 29.4693 208.958 29.432 209.038 29.432C209.14 29.432 209.22 29.4717 209.276 29.551L209.626 30.006ZM212.451 25.33C212.675 24.8447 212.951 24.4667 213.277 24.196C213.604 23.9207 214.003 23.783 214.474 23.783C214.624 23.783 214.766 23.7993 214.901 23.832C215.041 23.8647 215.165 23.916 215.272 23.986L215.181 24.917C215.153 25.0337 215.083 25.092 214.971 25.092C214.906 25.092 214.81 25.078 214.684 25.05C214.558 25.022 214.416 25.008 214.257 25.008C214.033 25.008 213.833 25.0407 213.655 25.106C213.483 25.1713 213.326 25.2693 213.186 25.4C213.051 25.526 212.927 25.6847 212.815 25.876C212.708 26.0627 212.61 26.2773 212.521 26.52V31H211.268V23.909H211.982C212.118 23.909 212.211 23.9347 212.262 23.986C212.314 24.0373 212.349 24.126 212.367 24.252L212.451 25.33ZM224.269 25.596C224.036 25.2833 223.784 25.0663 223.513 24.945C223.242 24.819 222.939 24.756 222.603 24.756C221.945 24.756 221.439 24.9917 221.084 25.463C220.729 25.9343 220.552 26.6063 220.552 27.479C220.552 27.941 220.592 28.3377 220.671 28.669C220.75 28.9957 220.867 29.2663 221.021 29.481C221.175 29.691 221.364 29.845 221.588 29.943C221.812 30.041 222.066 30.09 222.351 30.09C222.762 30.09 223.119 29.9967 223.422 29.81C223.73 29.6233 224.012 29.3597 224.269 29.019V25.596ZM225.515 20.689V31H224.773C224.596 31 224.484 30.9137 224.437 30.741L224.325 29.88C224.022 30.244 223.676 30.538 223.289 30.762C222.902 30.986 222.454 31.098 221.945 31.098C221.539 31.098 221.17 31.021 220.839 30.867C220.508 30.7083 220.225 30.4773 219.992 30.174C219.759 29.8707 219.579 29.4927 219.453 29.04C219.327 28.5873 219.264 28.067 219.264 27.479C219.264 26.9563 219.334 26.471 219.474 26.023C219.614 25.5703 219.815 25.1783 220.076 24.847C220.337 24.5157 220.657 24.2567 221.035 24.07C221.418 23.8787 221.847 23.783 222.323 23.783C222.757 23.783 223.128 23.8577 223.436 24.007C223.749 24.1517 224.026 24.3547 224.269 24.616V20.689H225.515ZM231.326 27.808C230.752 27.8267 230.262 27.8733 229.856 27.948C229.455 28.018 229.126 28.1113 228.869 28.228C228.617 28.3447 228.433 28.4823 228.316 28.641C228.204 28.7997 228.148 28.977 228.148 29.173C228.148 29.3597 228.178 29.5207 228.239 29.656C228.3 29.7913 228.381 29.9033 228.484 29.992C228.591 30.076 228.715 30.139 228.855 30.181C229 30.2183 229.154 30.237 229.317 30.237C229.536 30.237 229.737 30.216 229.919 30.174C230.101 30.1273 230.271 30.062 230.43 29.978C230.593 29.894 230.747 29.7937 230.892 29.677C231.041 29.5603 231.186 29.4273 231.326 29.278V27.808ZM227.301 24.91C227.693 24.532 228.115 24.2497 228.568 24.063C229.021 23.8763 229.522 23.783 230.073 23.783C230.47 23.783 230.822 23.8483 231.13 23.979C231.438 24.1097 231.697 24.2917 231.907 24.525C232.117 24.7583 232.276 25.0407 232.383 25.372C232.49 25.7033 232.544 26.0673 232.544 26.464V31H231.991C231.87 31 231.776 30.9813 231.711 30.944C231.646 30.902 231.594 30.8227 231.557 30.706L231.417 30.034C231.23 30.2067 231.048 30.3607 230.871 30.496C230.694 30.6267 230.507 30.7387 230.311 30.832C230.115 30.9207 229.905 30.9883 229.681 31.035C229.462 31.0863 229.217 31.112 228.946 31.112C228.671 31.112 228.412 31.0747 228.169 31C227.926 30.9207 227.714 30.804 227.532 30.65C227.355 30.496 227.212 30.3023 227.105 30.069C227.002 29.831 226.951 29.551 226.951 29.229C226.951 28.949 227.028 28.6807 227.182 28.424C227.336 28.1627 227.586 27.9317 227.931 27.731C228.276 27.5303 228.727 27.367 229.282 27.241C229.837 27.1103 230.519 27.0357 231.326 27.017V26.464C231.326 25.9133 231.207 25.498 230.969 25.218C230.731 24.9333 230.383 24.791 229.926 24.791C229.618 24.791 229.359 24.8307 229.149 24.91C228.944 24.9847 228.764 25.071 228.61 25.169C228.461 25.2623 228.33 25.3487 228.218 25.428C228.111 25.5027 228.003 25.54 227.896 25.54C227.812 25.54 227.74 25.519 227.679 25.477C227.618 25.4303 227.567 25.3743 227.525 25.309L227.301 24.91ZM236.523 31.112C235.963 31.112 235.532 30.9557 235.228 30.643C234.93 30.3303 234.78 29.88 234.78 29.292V24.952H233.926C233.852 24.952 233.789 24.931 233.737 24.889C233.686 24.8423 233.66 24.7723 233.66 24.679V24.182L234.822 24.035L235.109 21.844C235.123 21.774 235.154 21.718 235.2 21.676C235.252 21.6293 235.317 21.606 235.396 21.606H236.026V24.049H238.077V24.952H236.026V29.208C236.026 29.5067 236.099 29.7283 236.243 29.873C236.388 30.0177 236.575 30.09 236.803 30.09C236.934 30.09 237.046 30.0737 237.139 30.041C237.237 30.0037 237.321 29.964 237.391 29.922C237.461 29.88 237.52 29.8427 237.566 29.81C237.618 29.7727 237.662 29.754 237.699 29.754C237.765 29.754 237.823 29.7937 237.874 29.873L238.238 30.468C238.024 30.6687 237.765 30.8273 237.461 30.944C237.158 31.056 236.845 31.112 236.523 31.112ZM243.207 27.808C242.633 27.8267 242.143 27.8733 241.737 27.948C241.336 28.018 241.007 28.1113 240.75 28.228C240.498 28.3447 240.314 28.4823 240.197 28.641C240.085 28.7997 240.029 28.977 240.029 29.173C240.029 29.3597 240.059 29.5207 240.12 29.656C240.181 29.7913 240.262 29.9033 240.365 29.992C240.472 30.076 240.596 30.139 240.736 30.181C240.881 30.2183 241.035 30.237 241.198 30.237C241.417 30.237 241.618 30.216 241.8 30.174C241.982 30.1273 242.152 30.062 242.311 29.978C242.474 29.894 242.628 29.7937 242.773 29.677C242.922 29.5603 243.067 29.4273 243.207 29.278V27.808ZM239.182 24.91C239.574 24.532 239.996 24.2497 240.449 24.063C240.902 23.8763 241.403 23.783 241.954 23.783C242.351 23.783 242.703 23.8483 243.011 23.979C243.319 24.1097 243.578 24.2917 243.788 24.525C243.998 24.7583 244.157 25.0407 244.264 25.372C244.371 25.7033 244.425 26.0673 244.425 26.464V31H243.872C243.751 31 243.657 30.9813 243.592 30.944C243.527 30.902 243.475 30.8227 243.438 30.706L243.298 30.034C243.111 30.2067 242.929 30.3607 242.752 30.496C242.575 30.6267 242.388 30.7387 242.192 30.832C241.996 30.9207 241.786 30.9883 241.562 31.035C241.343 31.0863 241.098 31.112 240.827 31.112C240.552 31.112 240.293 31.0747 240.05 31C239.807 30.9207 239.595 30.804 239.413 30.65C239.236 30.496 239.093 30.3023 238.986 30.069C238.883 29.831 238.832 29.551 238.832 29.229C238.832 28.949 238.909 28.6807 239.063 28.424C239.217 28.1627 239.467 27.9317 239.812 27.731C240.157 27.5303 240.608 27.367 241.163 27.241C241.718 27.1103 242.4 27.0357 243.207 27.017V26.464C243.207 25.9133 243.088 25.498 242.85 25.218C242.612 24.9333 242.264 24.791 241.807 24.791C241.499 24.791 241.24 24.8307 241.03 24.91C240.825 24.9847 240.645 25.071 240.491 25.169C240.342 25.2623 240.211 25.3487 240.099 25.428C239.992 25.5027 239.884 25.54 239.777 25.54C239.693 25.54 239.621 25.519 239.56 25.477C239.499 25.4303 239.448 25.3743 239.406 25.309L239.182 24.91ZM251.221 23.909V31H249.975V23.909H251.221ZM251.487 21.683C251.487 21.8043 251.461 21.9187 251.41 22.026C251.363 22.1287 251.298 22.222 251.214 22.306C251.135 22.3853 251.039 22.4483 250.927 22.495C250.82 22.5417 250.705 22.565 250.584 22.565C250.463 22.565 250.348 22.5417 250.241 22.495C250.138 22.4483 250.047 22.3853 249.968 22.306C249.889 22.222 249.826 22.1287 249.779 22.026C249.732 21.9187 249.709 21.8043 249.709 21.683C249.709 21.5617 249.732 21.4473 249.779 21.34C249.826 21.228 249.889 21.1323 249.968 21.053C250.047 20.969 250.138 20.9037 250.241 20.857C250.348 20.8103 250.463 20.787 250.584 20.787C250.705 20.787 250.82 20.8103 250.927 20.857C251.039 20.9037 251.135 20.969 251.214 21.053C251.298 21.1323 251.363 21.228 251.41 21.34C251.461 21.4473 251.487 21.5617 251.487 21.683ZM257.398 25.078C257.342 25.1807 257.256 25.232 257.139 25.232C257.069 25.232 256.99 25.2063 256.901 25.155C256.813 25.1037 256.703 25.0477 256.572 24.987C256.446 24.9217 256.295 24.8633 256.117 24.812C255.94 24.756 255.73 24.728 255.487 24.728C255.277 24.728 255.088 24.756 254.92 24.812C254.752 24.8633 254.608 24.9357 254.486 25.029C254.37 25.1223 254.279 25.232 254.213 25.358C254.153 25.4793 254.122 25.6123 254.122 25.757C254.122 25.939 254.174 26.0907 254.276 26.212C254.384 26.3333 254.524 26.4383 254.696 26.527C254.869 26.6157 255.065 26.695 255.284 26.765C255.504 26.8303 255.728 26.9027 255.956 26.982C256.19 27.0567 256.416 27.1407 256.635 27.234C256.855 27.3273 257.051 27.444 257.223 27.584C257.396 27.724 257.534 27.8967 257.636 28.102C257.744 28.3027 257.797 28.5453 257.797 28.83C257.797 29.1567 257.739 29.46 257.622 29.74C257.506 30.0153 257.333 30.2557 257.104 30.461C256.876 30.6617 256.596 30.8203 256.264 30.937C255.933 31.0537 255.55 31.112 255.116 31.112C254.622 31.112 254.174 31.0327 253.772 30.874C253.371 30.7107 253.03 30.503 252.75 30.251L253.044 29.775C253.082 29.7143 253.126 29.6677 253.177 29.635C253.229 29.6023 253.294 29.586 253.373 29.586C253.457 29.586 253.546 29.6187 253.639 29.684C253.733 29.7493 253.845 29.8217 253.975 29.901C254.111 29.9803 254.274 30.0527 254.465 30.118C254.657 30.1833 254.895 30.216 255.179 30.216C255.422 30.216 255.634 30.1857 255.816 30.125C255.998 30.0597 256.15 29.9733 256.271 29.866C256.393 29.7587 256.481 29.635 256.537 29.495C256.598 29.355 256.628 29.2057 256.628 29.047C256.628 28.851 256.575 28.69 256.467 28.564C256.365 28.4333 256.227 28.3237 256.054 28.235C255.882 28.1417 255.683 28.0623 255.459 27.997C255.24 27.927 255.014 27.8547 254.78 27.78C254.552 27.7053 254.325 27.6213 254.101 27.528C253.882 27.43 253.686 27.3087 253.513 27.164C253.341 27.0193 253.201 26.842 253.093 26.632C252.991 26.4173 252.939 26.1583 252.939 25.855C252.939 25.5843 252.995 25.3253 253.107 25.078C253.219 24.826 253.383 24.6067 253.597 24.42C253.812 24.2287 254.076 24.077 254.388 23.965C254.701 23.853 255.058 23.797 255.459 23.797C255.926 23.797 256.344 23.8717 256.712 24.021C257.086 24.1657 257.408 24.3663 257.678 24.623L257.398 25.078ZM267.842 25.169C267.805 25.2203 267.767 25.26 267.73 25.288C267.693 25.316 267.641 25.33 267.576 25.33C267.506 25.33 267.429 25.302 267.345 25.246C267.261 25.1853 267.156 25.12 267.03 25.05C266.909 24.98 266.757 24.917 266.575 24.861C266.398 24.8003 266.178 24.77 265.917 24.77C265.567 24.77 265.259 24.833 264.993 24.959C264.727 25.0803 264.503 25.2577 264.321 25.491C264.144 25.7243 264.008 26.0067 263.915 26.338C263.826 26.6693 263.782 27.0403 263.782 27.451C263.782 27.8803 263.831 28.263 263.929 28.599C264.027 28.9303 264.165 29.2103 264.342 29.439C264.524 29.663 264.741 29.8357 264.993 29.957C265.25 30.0737 265.537 30.132 265.854 30.132C266.157 30.132 266.407 30.097 266.603 30.027C266.799 29.9523 266.96 29.8707 267.086 29.782C267.217 29.6933 267.324 29.614 267.408 29.544C267.497 29.4693 267.583 29.432 267.667 29.432C267.77 29.432 267.849 29.4717 267.905 29.551L268.255 30.006C268.101 30.1973 267.926 30.3607 267.73 30.496C267.534 30.6313 267.322 30.7457 267.093 30.839C266.869 30.9277 266.633 30.993 266.386 31.035C266.139 31.077 265.887 31.098 265.63 31.098C265.187 31.098 264.774 31.0163 264.391 30.853C264.013 30.6897 263.684 30.454 263.404 30.146C263.124 29.8333 262.905 29.4507 262.746 28.998C262.587 28.5453 262.508 28.0297 262.508 27.451C262.508 26.9237 262.58 26.436 262.725 25.988C262.874 25.54 263.089 25.155 263.369 24.833C263.654 24.5063 264.001 24.252 264.412 24.07C264.827 23.888 265.303 23.797 265.84 23.797C266.339 23.797 266.778 23.8787 267.156 24.042C267.539 24.2007 267.877 24.427 268.171 24.721L267.842 25.169ZM272.458 23.797C272.976 23.797 273.443 23.8833 273.858 24.056C274.274 24.2287 274.628 24.4737 274.922 24.791C275.216 25.1083 275.44 25.4933 275.594 25.946C275.753 26.394 275.832 26.8957 275.832 27.451C275.832 28.011 275.753 28.515 275.594 28.963C275.44 29.411 275.216 29.7937 274.922 30.111C274.628 30.4283 274.274 30.6733 273.858 30.846C273.443 31.014 272.976 31.098 272.458 31.098C271.936 31.098 271.464 31.014 271.044 30.846C270.629 30.6733 270.274 30.4283 269.98 30.111C269.686 29.7937 269.46 29.411 269.301 28.963C269.147 28.515 269.07 28.011 269.07 27.451C269.07 26.8957 269.147 26.394 269.301 25.946C269.46 25.4933 269.686 25.1083 269.98 24.791C270.274 24.4737 270.629 24.2287 271.044 24.056C271.464 23.8833 271.936 23.797 272.458 23.797ZM272.458 30.125C273.158 30.125 273.681 29.8917 274.026 29.425C274.372 28.9537 274.544 28.298 274.544 27.458C274.544 26.6133 274.372 25.9553 274.026 25.484C273.681 25.0127 273.158 24.777 272.458 24.777C272.104 24.777 271.793 24.8377 271.527 24.959C271.266 25.0803 271.047 25.2553 270.869 25.484C270.697 25.7127 270.566 25.995 270.477 26.331C270.393 26.6623 270.351 27.038 270.351 27.458C270.351 28.298 270.524 28.9537 270.869 29.425C271.219 29.8917 271.749 30.125 272.458 30.125ZM278.596 25.33C278.82 24.8447 279.095 24.4667 279.422 24.196C279.748 23.9207 280.147 23.783 280.619 23.783C280.768 23.783 280.91 23.7993 281.046 23.832C281.186 23.8647 281.309 23.916 281.417 23.986L281.326 24.917C281.298 25.0337 281.228 25.092 281.116 25.092C281.05 25.092 280.955 25.078 280.829 25.05C280.703 25.022 280.56 25.008 280.402 25.008C280.178 25.008 279.977 25.0407 279.8 25.106C279.627 25.1713 279.471 25.2693 279.331 25.4C279.195 25.526 279.072 25.6847 278.96 25.876C278.852 26.0627 278.754 26.2773 278.666 26.52V31H277.413V23.909H278.127C278.262 23.909 278.355 23.9347 278.407 23.986C278.458 24.0373 278.493 24.126 278.512 24.252L278.596 25.33ZM283.695 25.33C283.919 24.8447 284.195 24.4667 284.521 24.196C284.848 23.9207 285.247 23.783 285.718 23.783C285.868 23.783 286.01 23.7993 286.145 23.832C286.285 23.8647 286.409 23.916 286.516 23.986L286.425 24.917C286.397 25.0337 286.327 25.092 286.215 25.092C286.15 25.092 286.054 25.078 285.928 25.05C285.802 25.022 285.66 25.008 285.501 25.008C285.277 25.008 285.077 25.0407 284.899 25.106C284.727 25.1713 284.57 25.2693 284.43 25.4C284.295 25.526 284.171 25.6847 284.059 25.876C283.952 26.0627 283.854 26.2773 283.765 26.52V31H282.512V23.909H283.226C283.362 23.909 283.455 23.9347 283.506 23.986C283.558 24.0373 283.593 24.126 283.611 24.252L283.695 25.33ZM292.071 26.681C292.071 26.3917 292.029 26.128 291.945 25.89C291.866 25.6473 291.747 25.4397 291.588 25.267C291.434 25.0897 291.245 24.9543 291.021 24.861C290.797 24.763 290.543 24.714 290.258 24.714C289.661 24.714 289.187 24.889 288.837 25.239C288.492 25.5843 288.277 26.065 288.193 26.681H292.071ZM293.079 30.006C292.925 30.1927 292.741 30.356 292.526 30.496C292.311 30.6313 292.08 30.7433 291.833 30.832C291.59 30.9207 291.338 30.986 291.077 31.028C290.816 31.0747 290.557 31.098 290.3 31.098C289.81 31.098 289.357 31.0163 288.942 30.853C288.531 30.685 288.174 30.4423 287.871 30.125C287.572 29.803 287.339 29.4063 287.171 28.935C287.003 28.4637 286.919 27.9223 286.919 27.311C286.919 26.8163 286.994 26.3543 287.143 25.925C287.297 25.4957 287.516 25.1247 287.801 24.812C288.086 24.4947 288.433 24.2473 288.844 24.07C289.255 23.888 289.717 23.797 290.23 23.797C290.655 23.797 291.047 23.8693 291.406 24.014C291.77 24.154 292.083 24.3593 292.344 24.63C292.61 24.896 292.818 25.2273 292.967 25.624C293.116 26.016 293.191 26.464 293.191 26.968C293.191 27.164 293.17 27.2947 293.128 27.36C293.086 27.4253 293.007 27.458 292.89 27.458H288.151C288.165 27.906 288.226 28.2957 288.333 28.627C288.445 28.9583 288.599 29.236 288.795 29.46C288.991 29.6793 289.224 29.845 289.495 29.957C289.766 30.0643 290.069 30.118 290.405 30.118C290.718 30.118 290.986 30.083 291.21 30.013C291.439 29.9383 291.635 29.859 291.798 29.775C291.961 29.691 292.097 29.614 292.204 29.544C292.316 29.4693 292.412 29.432 292.491 29.432C292.594 29.432 292.673 29.4717 292.729 29.551L293.079 30.006ZM299.656 25.169C299.619 25.2203 299.582 25.26 299.544 25.288C299.507 25.316 299.456 25.33 299.39 25.33C299.32 25.33 299.243 25.302 299.159 25.246C299.075 25.1853 298.97 25.12 298.844 25.05C298.723 24.98 298.571 24.917 298.389 24.861C298.212 24.8003 297.993 24.77 297.731 24.77C297.381 24.77 297.073 24.833 296.807 24.959C296.541 25.0803 296.317 25.2577 296.135 25.491C295.958 25.7243 295.823 26.0067 295.729 26.338C295.641 26.6693 295.596 27.0403 295.596 27.451C295.596 27.8803 295.645 28.263 295.743 28.599C295.841 28.9303 295.979 29.2103 296.156 29.439C296.338 29.663 296.555 29.8357 296.807 29.957C297.064 30.0737 297.351 30.132 297.668 30.132C297.972 30.132 298.221 30.097 298.417 30.027C298.613 29.9523 298.774 29.8707 298.9 29.782C299.031 29.6933 299.138 29.614 299.222 29.544C299.311 29.4693 299.397 29.432 299.481 29.432C299.584 29.432 299.663 29.4717 299.719 29.551L300.069 30.006C299.915 30.1973 299.74 30.3607 299.544 30.496C299.348 30.6313 299.136 30.7457 298.907 30.839C298.683 30.9277 298.448 30.993 298.2 31.035C297.953 31.077 297.701 31.098 297.444 31.098C297.001 31.098 296.588 31.0163 296.205 30.853C295.827 30.6897 295.498 30.454 295.218 30.146C294.938 29.8333 294.719 29.4507 294.56 28.998C294.402 28.5453 294.322 28.0297 294.322 27.451C294.322 26.9237 294.395 26.436 294.539 25.988C294.689 25.54 294.903 25.155 295.183 24.833C295.468 24.5063 295.816 24.252 296.226 24.07C296.642 23.888 297.118 23.797 297.654 23.797C298.154 23.797 298.592 23.8787 298.97 24.042C299.353 24.2007 299.691 24.427 299.985 24.721L299.656 25.169ZM303.584 31.112C303.024 31.112 302.592 30.9557 302.289 30.643C301.99 30.3303 301.841 29.88 301.841 29.292V24.952H300.987C300.912 24.952 300.849 24.931 300.798 24.889C300.747 24.8423 300.721 24.7723 300.721 24.679V24.182L301.883 24.035L302.17 21.844C302.184 21.774 302.214 21.718 302.261 21.676C302.312 21.6293 302.378 21.606 302.457 21.606H303.087V24.049H305.138V24.952H303.087V29.208C303.087 29.5067 303.159 29.7283 303.304 29.873C303.449 30.0177 303.635 30.09 303.864 30.09C303.995 30.09 304.107 30.0737 304.2 30.041C304.298 30.0037 304.382 29.964 304.452 29.922C304.522 29.88 304.58 29.8427 304.627 29.81C304.678 29.7727 304.723 29.754 304.76 29.754C304.825 29.754 304.884 29.7937 304.935 29.873L305.299 30.468C305.084 30.6687 304.825 30.8273 304.522 30.944C304.219 31.056 303.906 31.112 303.584 31.112ZM306.215 30.23C306.215 30.1087 306.236 29.9943 306.278 29.887C306.324 29.7797 306.385 29.6863 306.46 29.607C306.539 29.5277 306.632 29.4647 306.74 29.418C306.847 29.3713 306.961 29.348 307.083 29.348C307.204 29.348 307.318 29.3713 307.426 29.418C307.533 29.4647 307.626 29.5277 307.706 29.607C307.785 29.6863 307.848 29.7797 307.895 29.887C307.941 29.9943 307.965 30.1087 307.965 30.23C307.965 30.356 307.941 30.4727 307.895 30.58C307.848 30.6827 307.785 30.7737 307.706 30.853C307.626 30.9323 307.533 30.993 307.426 31.035C307.318 31.0817 307.204 31.105 307.083 31.105C306.961 31.105 306.847 31.0817 306.74 31.035C306.632 30.993 306.539 30.9323 306.46 30.853C306.385 30.7737 306.324 30.6827 306.278 30.58C306.236 30.4727 306.215 30.356 306.215 30.23Z" fill="#595959"/>
<path d="M50.3993 33.0625L40.6493 16.1875C40.504 15.9367 40.2532 15.8125 40.0001 15.8125C39.747 15.8125 39.4939 15.9367 39.3509 16.1875L29.6009 33.0625C29.3126 33.5641 29.6735 34.1875 30.2501 34.1875H49.7501C50.3267 34.1875 50.6876 33.5641 50.3993 33.0625ZM39.2501 22.75C39.2501 22.6469 39.3345 22.5625 39.4376 22.5625H40.5626C40.6657 22.5625 40.7501 22.6469 40.7501 22.75V27.0625C40.7501 27.1656 40.6657 27.25 40.5626 27.25H39.4376C39.3345 27.25 39.2501 27.1656 39.2501 27.0625V22.75ZM40.0001 31C39.7057 30.994 39.4254 30.8728 39.2193 30.6625C39.0133 30.4522 38.8978 30.1695 38.8978 29.875C38.8978 29.5805 39.0133 29.2978 39.2193 29.0875C39.4254 28.8772 39.7057 28.756 40.0001 28.75C40.2945 28.756 40.5748 28.8772 40.7809 29.0875C40.987 29.2978 41.1024 29.5805 41.1024 29.875C41.1024 30.1695 40.987 30.4522 40.7809 30.6625C40.5748 30.8728 40.2945 30.994 40.0001 31Z" fill="#F24545"/>
</svg>
